<?xml version="1.0" encoding="UTF-8" standalone="no"?>
<!DOCTYPE svg PUBLIC "-//W3C//DTD SVG 1.0//EN" "http://www.w3.org/TR/2001/REC-SVG-20010904/DTD/svg10.dtd">
<!-- Создано Microsoft Visio 11.0, Экспорт SVG, версия 1.0 ARM.svg Страница-1 -->
<svg xmlns="http://www.w3.org/2000/svg" xmlns:xlink="http://www.w3.org/1999/xlink" xmlns:ev="http://www.w3.org/2001/xml-events"
		xmlns:v="http://schemas.microsoft.com/visio/2003/SVGExtensions/" width="1.07in" height="1.18425in"
		viewBox="0 0 77.0397 85.2661" xml:space="preserve" color-interpolation-filters="sRGB" class="st11">
	<v:documentProperties v:langID="1049" v:metric="true" v:viewMarkup="false"/>

	<style type="text/css">
	<![CDATA[
		.st1 {fill:#dddddd}
		.st2 {fill:url(#grad31-8);stroke:#ffffff;stroke-linecap:round;stroke-linejoin:round;stroke-width:0.72}
		.st3 {fill:url(#grad30-17);stroke:#ffffff;stroke-linecap:round;stroke-linejoin:round;stroke-width:0.72}
		.st4 {fill:url(#grad32-24);stroke:#000000;stroke-linecap:round;stroke-linejoin:round;stroke-width:0.72}
		.st5 {fill:none;stroke:#000000;stroke-linecap:round;stroke-linejoin:round;stroke-width:1.5}
		.st6 {stroke:#ffffff;stroke-linecap:round;stroke-linejoin:round;stroke-width:0.75}
		.st7 {stroke:#000000;stroke-linecap:round;stroke-linejoin:round;stroke-width:0.75}
		.st8 {fill:url(#grad35-41);stroke:#000000;stroke-linecap:round;stroke-linejoin:round;stroke-width:0.75}
		.st9 {fill:#ffffff;stroke:none;stroke-linecap:round;stroke-linejoin:round;stroke-width:0.24}
		.st10 {fill:#969696;stroke:none;stroke-linecap:round;stroke-linejoin:round;stroke-width:0.24}
		.st11 {fill:none;fill-rule:evenodd;font-size:12px;overflow:visible;stroke-linecap:square;stroke-miterlimit:3}
	]]>
	</style>

	<defs id="Patterns_And_Gradients">
		<pattern id="grad31-8" v:fillPattern="31" v:foreground="#ffffff" v:background="#969696" x="0" y="0" width="1" height="1"
				patternContentUnits="objectBoundingBox">
			<path d="M 0 0 L 0 1 L 1 1 z" style="fill:url(#grad28-9)"/>
			<path d="M 0 0 L 1 0 L 1 1 z" style="fill:url(#grad25-10)"/>
		</pattern>
		<linearGradient id="grad28-9" v:fillPattern="31" v:foreground="#ffffff" v:background="#969696" x1="0" y1="0" x2="0" y2="1">
			<stop offset="0" style="stop-color:#ffffff;stop-opacity:1"/>
			<stop offset="1" style="stop-color:#969696;stop-opacity:1"/>
		</linearGradient>
		<linearGradient id="grad25-10" v:fillPattern="31" v:foreground="#ffffff" v:background="#969696" x1="0" y1="0" x2="1" y2="0">
			<stop offset="0" style="stop-color:#ffffff;stop-opacity:1"/>
			<stop offset="1" style="stop-color:#969696;stop-opacity:1"/>
		</linearGradient>
		<linearGradient id="grad30-17" v:fillPattern="30" v:foreground="#ffffff" v:background="#dddddd" x1="0" y1="1" x2="0" y2="0">
			<stop offset="0" style="stop-color:#ffffff;stop-opacity:1"/>
			<stop offset="1" style="stop-color:#dddddd;stop-opacity:1"/>
		</linearGradient>
		<pattern id="grad32-24" v:fillPattern="32" v:foreground="#ffffff" v:background="#c0c0c0" x="0" y="0" width="1" height="1"
				patternContentUnits="objectBoundingBox">
			<path d="M 0 1 L 0 0 L 1 0 z" style="fill:url(#grad27-25)"/>
			<path d="M 0 1 L 1 1 L 1 0 z" style="fill:url(#grad28-26)"/>
		</pattern>
		<linearGradient id="grad27-25" v:fillPattern="32" v:foreground="#ffffff" v:background="#c0c0c0" x1="1" y1="0" x2="0" y2="0">
			<stop offset="0" style="stop-color:#ffffff;stop-opacity:1"/>
			<stop offset="1" style="stop-color:#c0c0c0;stop-opacity:1"/>
		</linearGradient>
		<linearGradient id="grad28-26" v:fillPattern="32" v:foreground="#ffffff" v:background="#c0c0c0" x1="0" y1="0" x2="0" y2="1">
			<stop offset="0" style="stop-color:#ffffff;stop-opacity:1"/>
			<stop offset="1" style="stop-color:#c0c0c0;stop-opacity:1"/>
		</linearGradient>
		<pattern id="grad35-41" v:fillPattern="35" v:foreground="#ffffff" v:background="#c6d1e3" x="0" y="0" width="1" height="1"
				patternContentUnits="objectBoundingBox">
			<path d="M 0.5 0.5 L 0 0 L 0 1 z" style="fill:url(#grad27-42)"/>
			<path d="M 0.5 0.5 L 1 0 L 1 1 z" style="fill:url(#grad25-43)"/>
			<path d="M 0.5 0.5 L 0 0 L 1 0 z" style="fill:url(#grad30-44)"/>
			<path d="M 0.5 0.5 L 0 1 L 1 1 z" style="fill:url(#grad28-45)"/>
		</pattern>
		<linearGradient id="grad27-42" v:fillPattern="35" v:foreground="#ffffff" v:background="#c6d1e3" x1="1" y1="0" x2="0" y2="0">
			<stop offset="0" style="stop-color:#ffffff;stop-opacity:1"/>
			<stop offset="1" style="stop-color:#c6d1e3;stop-opacity:1"/>
		</linearGradient>
		<linearGradient id="grad25-43" v:fillPattern="35" v:foreground="#ffffff" v:background="#c6d1e3" x1="0" y1="0" x2="1" y2="0">
			<stop offset="0" style="stop-color:#ffffff;stop-opacity:1"/>
			<stop offset="1" style="stop-color:#c6d1e3;stop-opacity:1"/>
		</linearGradient>
		<linearGradient id="grad30-44" v:fillPattern="35" v:foreground="#ffffff" v:background="#c6d1e3" x1="0" y1="1" x2="0" y2="0">
			<stop offset="0" style="stop-color:#ffffff;stop-opacity:1"/>
			<stop offset="1" style="stop-color:#c6d1e3;stop-opacity:1"/>
		</linearGradient>
		<linearGradient id="grad28-45" v:fillPattern="35" v:foreground="#ffffff" v:background="#c6d1e3" x1="0" y1="0" x2="0" y2="1">
			<stop offset="0" style="stop-color:#ffffff;stop-opacity:1"/>
			<stop offset="1" style="stop-color:#c6d1e3;stop-opacity:1"/>
		</linearGradient>
	</defs>
	<g v:mID="0" v:index="1" v:groupContext="foregroundPage">
		<title>Страница-1</title>
		<v:pageProperties v:drawingScale="0.0393701" v:pageScale="0.0393701" v:drawingUnits="24" v:shadowOffsetX="8.50394"
				v:shadowOffsetY="-8.50394" v:shadowType="1"/>
		<g id="group1-1" transform="translate(1.5,-14.4)" v:mID="1" v:groupContext="group">
			<v:custProps>
				<v:cp v:nameU="ShapeClass" v:lbl="ShapeClass" v:type="0" v:invis="true" v:ask="false" v:langID="1033"
						v:val="VT4(Equipment)"/>
				<v:cp v:nameU="ShapeType" v:lbl="ShapeType" v:type="0" v:invis="true" v:ask="false" v:langID="1033"
						v:val="VT4(Computer)"/>
				<v:cp v:nameU="SubShapeType" v:lbl="SubShapeType" v:type="0" v:invis="true" v:ask="false" v:langID="1033"
						v:val="VT4(Laptop)"/>
				<v:cp v:nameU="Manufacturer" v:lbl="Manufacturer" v:type="0" v:sortKey="Equipment" v:invis="false" v:ask="false"
						v:langID="1033"/>
				<v:cp v:nameU="ProductNumber" v:lbl="Product Number" v:type="0" v:sortKey="Equipment" v:invis="false" v:ask="false"
						v:langID="1033"/>
				<v:cp v:nameU="PartNumber" v:lbl="Part Number" v:type="0" v:sortKey="Equipment" v:invis="false" v:ask="false"
						v:langID="1033"/>
				<v:cp v:nameU="ProductDescription" v:lbl="Product Description" v:type="0" v:sortKey="Equipment" v:invis="false"
						v:ask="false" v:langID="1033"/>
				<v:cp v:nameU="AssetNumber" v:lbl="Asset Number" v:type="0" v:sortKey="Asset" v:invis="false" v:ask="false"
						v:langID="1033"/>
				<v:cp v:nameU="SerialNumber" v:lbl="Serial Number" v:type="0" v:sortKey="Asset" v:invis="false" v:ask="false"
						v:langID="1033"/>
				<v:cp v:nameU="Location" v:lbl="Location" v:type="0" v:sortKey="Asset" v:invis="false" v:ask="false"
						v:langID="1033"/>
				<v:cp v:nameU="Building" v:lbl="Building" v:type="0" v:sortKey="Asset" v:invis="false" v:ask="false"
						v:langID="1033"/>
				<v:cp v:nameU="Room" v:lbl="Room" v:type="0" v:sortKey="Asset" v:invis="false" v:ask="false" v:langID="1033"/>
				<v:cp v:nameU="NetworkName" v:lbl="Network Name" v:type="0" v:sortKey="Network" v:invis="false" v:ask="false"
						v:langID="1033"/>
				<v:cp v:nameU="IPAddress" v:lbl="IP Address" v:type="0" v:sortKey="Network" v:invis="false" v:ask="false"
						v:langID="1033"/>
				<v:cp v:nameU="SubnetMask" v:lbl="Subnet Mask" v:type="0" v:sortKey="Network" v:invis="false" v:ask="false"
						v:langID="1033"/>
				<v:cp v:nameU="AdminInterface" v:lbl="Administrative Interface" v:type="0" v:sortKey="Network" v:invis="false"
						v:ask="false" v:langID="1033"/>
				<v:cp v:nameU="NumberofPorts" v:lbl="Number of Ports" v:type="0" v:sortKey="Network" v:invis="false" v:ask="false"
						v:langID="1033"/>
				<v:cp v:nameU="MACAddress" v:lbl="MAC Address" v:type="0" v:sortKey="Network" v:invis="false" v:ask="false"
						v:langID="1033"/>
				<v:cp v:nameU="CommunityString" v:lbl="Community String" v:type="0" v:sortKey="Network" v:invis="false"
						v:ask="false" v:langID="1033"/>
				<v:cp v:nameU="NetworkDescription" v:lbl="Network Description" v:type="0" v:sortKey="Network" v:invis="false"
						v:ask="false" v:langID="1033"/>
				<v:cp v:nameU="HardDriveSize" v:lbl="Hard Drive Capacity" v:type="0" v:sortKey="Workstation" v:invis="false"
						v:ask="false" v:langID="1033"/>
				<v:cp v:nameU="CPU" v:lbl="CPU" v:type="0" v:sortKey="Workstation" v:invis="false" v:ask="false" v:langID="1033"/>
				<v:cp v:nameU="Memory" v:lbl="Memory" v:type="0" v:sortKey="Workstation" v:invis="false" v:ask="false"
						v:langID="1033"/>
				<v:cp v:nameU="OperatingSystem" v:lbl="Operating System" v:type="0" v:sortKey="Workstation" v:invis="false"
						v:ask="false" v:langID="1033"/>
			</v:custProps>
			<v:userDefs>
				<v:ud v:nameU="HasText" v:val="VT0(0):5"/>
				<v:ud v:nameU="ShapeClass" v:val="VT0(5):26"/>
				<v:ud v:nameU="ShapeType" v:val="VT0(6):26"/>
				<v:ud v:nameU="SubShapeType" v:val="VT0(37):26"/>
				<v:ud v:nameU="SolSH" v:val="VT14({BF0433D9-CD73-4EB5-8390-8653BE590246}):41"/>
				<v:ud v:nameU="visLegendShape" v:val="VT0(2):26"/>
			</v:userDefs>
			<title>Laptop computer.1051</title>
			<g id="shape2-2" v:mID="2" v:groupContext="shape" transform="translate(36.4751,0)">
				<title>Лист.2</title>
				<path d="M13.84 85.27 A34.8263 34.2965 -99.91 0 0 37.23 72.51 A9.85347 9.70358 -90.96 0 0 28.19 58.13 L0 85.27 L13.84
							 85.27 Z" class="st1"/>
			</g>
			<g id="shape3-5" v:mID="3" v:groupContext="shape" transform="translate(36.4751,-1.42109E-014)">
				<title>Лист.3</title>
				<path d="M0.02 79.95 L26.24 64.71 L24.47 71.09 L0 85.27 L0.02 79.95 Z" class="st2"/>
			</g>
			<g id="shape4-11" v:mID="4" v:groupContext="shape" transform="translate(59.1434,-18.4489)">
				<title>Лист.4</title>
				<path d="M0 85.27 L8.6 56.23 L11.72 56.23 L3.57 83.16 L0 85.27 Z" class="st2"/>
			</g>
			<g id="shape5-14" v:mID="5" v:groupContext="shape" transform="translate(31.3228,-47.4803)">
				<title>Лист.5</title>
				<path d="M0 64.43 L3.22 64.31 L28.52 77.72 L39.54 85.27 L36.43 85.27 A1571.06 1547.16 87.95 0 1 0 64.43 Z"
						class="st3"/>
			</g>
			<g id="shape6-18" v:mID="6" v:groupContext="shape" transform="translate(0,-5.31496)">
				<title>Лист.6</title>
				<path d="M0 64.36 L22.82 51.18 L59.14 72.13 L36.5 85.27 A102.944 101.378 89.17 0 1 0 64.36 Z" class="st3"/>
			</g>
			<g id="shape7-21" v:mID="7" v:groupContext="shape" transform="translate(22.8189,-18.4489)">
				<title>Лист.7</title>
				<path d="M36.32 85.27 A4962.32 4886.83 -91.15 0 0 0 64.31 L8.6 35.28 L44.93 56.23 L36.32 85.27 Z" class="st4"/>
			</g>
			<g id="shape8-27" v:mID="8" v:groupContext="shape">
				<title>Лист.8</title>
				<path d="M0 64.01 A85.44 84.1403 -90.05 0 0 36.48 85.27 L36.5 79.95 A85.6626 84.3595 88.88 0 1 0 59.05 L0 64.01 Z"
						class="st4"/>
			</g>
			<g id="shape9-30" v:mID="9" v:groupContext="shape">
				<title>Лист.9</title>
				<path d="M36.48 85.27 L60.94 71.09 L70.87 37.79 L34.54 16.83 L31.42 16.83 L22.82 45.86 L0 59.05 L0 64.01 A86.9113
							 85.5892 -90.05 0 0 36.48 85.27 Z" class="st5"/>
			</g>
			<g id="shape10-32" v:mID="10" v:groupContext="shape" transform="translate(25.5118,-21.437)">
				<title>Лист.10</title>
				<path d="M7.51 41.68 L0 66.77 L32.17 85.27" class="st6"/>
			</g>
			<g id="shape11-35" v:mID="11" v:groupContext="shape" transform="translate(54.2126,-1.27559) scale(-1,1)">
				<title>Лист.11</title>
				<path d="M0 73.08 L15.66 82.15 L15.66 85.27" class="st7"/>
			</g>
			<g id="shape12-38" v:mID="12" v:groupContext="shape" transform="translate(26.5039,-21.437)">
				<title>Лист.12</title>
				<path d="M0 66.49 L7.23 42.11 L6.52 41.68 A1396.8 1375.55 89.01 0 1 38.55 60.18 L31.18 85.27 L31.32 84.56 A1231.81
							 1213.07 88.95 0 1 -0 66.49 Z" class="st8"/>
			</g>
			<g id="group13-46" transform="translate(5.13165,-7.56695)" v:mID="13" v:groupContext="group">
				<title>Лист.13</title>
				<g id="shape14-47" v:mID="14" v:groupContext="shape" transform="translate(-7.99361E-015,-0.708661)">
					<title>Лист.14</title>
					<path d="M0 66.36 L3.27 68.25 L6.35 66.47 L3.08 64.58 L0 66.36 ZM4.62 63.69 L7.89 65.58 L10.98 63.8 L7.7 61.91
								 L4.62 63.69 ZM9.24 61.02 L12.52 62.92 L15.6 61.14 L12.32 59.25 L9.24 61.02 ZM13.86 58.36 L17.14
								 60.25 L20.22 58.47 L16.94 56.58 L13.86 58.36 ZM18.77 61.19 L22.05 63.08 L25.13 61.31 L21.85 59.41
								 L18.77 61.19 ZM23.68 64.03 L26.96 65.92 L30.04 64.14 L26.77 62.25 L23.68 64.03 ZM28.6 66.87 L31.87
								 68.76 L34.95 66.98 L31.68 65.09 L28.6 66.87 ZM38.42 72.54 L41.7 74.43 L44.78 72.65 L41.5 70.76 L38.42
								 72.54 ZM43.33 75.37 L46.61 77.26 L49.69 75.49 L46.41 73.59 L43.33 75.37 ZM38.71 78.04 L41.99 79.93
								 L45.07 78.15 L41.79 76.26 L38.71 78.04 ZM33.8 75.2 L37.08 77.1 L40.16 75.32 L36.88 73.43 L33.8 75.2
								 ZM33.51 69.7 L36.78 71.59 L39.86 69.81 L36.59 67.92 L33.51 69.7 ZM28.89 72.37 L32.16 74.26 L35.24
								 72.48 L31.97 70.59 L28.89 72.37 ZM23.98 69.53 L27.25 71.42 L30.33 69.64 L27.06 67.75 L23.98 69.53
								 ZM19.06 66.7 L22.34 68.59 L25.42 66.81 L22.14 64.92 L19.06 66.7 ZM14.15 63.86 L17.43 65.75 L20.51
								 63.97 L17.23 62.08 L14.15 63.86 ZM9.53 66.53 L12.81 68.42 L15.89 66.64 L12.61 64.75 L9.53 66.53
								 ZM14.44 69.36 L17.72 71.25 L20.8 69.48 L17.52 67.59 L14.44 69.36 ZM19.36 72.2 L22.63 74.09 L25.71
								 72.31 L22.44 70.42 L19.36 72.2 ZM24.27 75.04 L27.54 76.93 L30.62 75.15 L27.35 73.26 L24.27 75.04
								 ZM29.18 77.87 L32.46 79.76 L35.54 77.98 L32.26 76.09 L29.18 77.87 ZM34.09 80.71 L37.37 82.6 L40.45
								 80.82 L37.17 78.93 L34.09 80.71 ZM29.47 83.38 L32.75 85.27 L35.83 83.49 L32.55 81.6 L29.47 83.38
								 ZM24.56 80.54 L27.84 82.43 L30.92 80.65 L27.64 78.76 L24.56 80.54 ZM9.82 72.03 L22.92 79.59 L26
								 77.82 L12.9 70.25 L9.82 72.03 ZM4.91 69.2 L8.19 71.09 L11.27 69.31 L7.99 67.42 L4.91 69.2 Z"
							class="st9"/>
				</g>
				<g id="shape15-49" v:mID="15" v:groupContext="shape">
					<title>Лист.15</title>
					<path d="M13.86 58.36 L17.14 60.25 L17.14 59.54 L13.86 57.65 L13.86 58.36 ZM18.77 61.19 L22.05 63.08 L22.05 62.38
								 L18.77 60.48 L18.77 61.19 ZM23.68 64.03 L26.96 65.92 L26.96 65.21 L23.68 63.32 L23.68 64.03 ZM28.6
								 66.87 L31.87 68.76 L31.87 68.05 L28.6 66.16 L28.6 66.87 ZM33.51 69.7 L36.78 71.59 L36.78 70.88 L33.51
								 68.99 L33.51 69.7 ZM38.42 72.54 L41.7 74.43 L41.7 73.72 L38.42 71.83 L38.42 72.54 ZM17.14 59.54
								 L17.14 60.25 L20.22 58.47 L20.22 57.76 L17.14 59.54 ZM22.05 62.38 L22.05 63.08 L25.13 61.31 L25.13
								 60.6 L22.05 62.38 ZM26.96 65.21 L26.96 65.92 L30.04 64.14 L30.04 63.43 L26.96 65.21 ZM31.87 68.05
								 L31.87 68.76 L34.95 66.98 L34.95 66.27 L31.87 68.05 ZM36.78 70.88 L36.78 71.59 L39.86 69.81 L39.86
								 69.1 L36.78 70.88 ZM41.7 73.72 L41.7 74.43 L44.78 72.65 L44.78 71.94 L41.7 73.72 ZM43.33 75.37 L46.61
								 77.26 L46.61 76.55 L43.33 74.66 L43.33 75.37 ZM46.61 76.55 L46.61 77.26 L49.69 75.49 L49.69 74.78
								 L46.61 76.55 ZM9.24 61.02 L12.52 62.92 L12.52 62.21 L9.24 60.32 L9.24 61.02 ZM14.15 63.86 L17.43
								 65.75 L17.43 65.04 L14.15 63.15 L14.15 63.86 ZM19.06 66.7 L22.34 68.59 L22.34 67.88 L19.06 65.99
								 L19.06 66.7 ZM23.98 69.53 L27.25 71.42 L27.25 70.71 L23.98 68.82 L23.98 69.53 ZM28.89 72.37 L32.16
								 74.26 L32.16 73.55 L28.89 71.66 L28.89 72.37 ZM33.8 75.2 L37.08 77.1 L37.08 76.39 L33.8 74.5 L33.8
								 75.2 ZM12.52 62.21 L12.52 62.92 L15.6 61.14 L15.6 60.43 L12.52 62.21 ZM17.43 65.04 L17.43 65.75
								 L20.51 63.97 L20.51 63.26 L17.43 65.04 ZM22.34 67.88 L22.34 68.59 L25.42 66.81 L25.42 66.1 L22.34
								 67.88 ZM27.25 70.71 L27.25 71.42 L30.33 69.64 L30.33 68.94 L27.25 70.71 ZM32.16 73.55 L32.16 74.26
								 L35.24 72.48 L35.24 71.77 L32.16 73.55 ZM37.08 76.39 L37.08 77.1 L40.16 75.32 L40.16 74.61 L37.08
								 76.39 ZM38.71 78.04 L41.99 79.93 L41.99 79.22 L38.71 77.33 L38.71 78.04 ZM41.99 79.22 L41.99 79.93
								 L45.07 78.15 L45.07 77.44 L41.99 79.22 ZM4.62 63.69 L7.89 65.58 L7.89 64.87 L4.62 62.98 L4.62 63.69
								 ZM9.53 66.53 L12.81 68.42 L12.81 67.71 L9.53 65.82 L9.53 66.53 ZM14.44 69.36 L17.72 71.25 L17.72
								 70.55 L14.44 68.66 L14.44 69.36 ZM19.36 72.2 L22.63 74.09 L22.63 73.38 L19.36 71.49 L19.36 72.2
								 ZM24.27 75.04 L27.54 76.93 L27.54 76.22 L24.27 74.33 L24.27 75.04 ZM29.18 77.87 L32.46 79.76 L32.46
								 79.05 L29.18 77.16 L29.18 77.87 ZM7.89 64.87 L7.89 65.58 L10.98 63.8 L10.98 63.1 L7.89 64.87 ZM12.81
								 67.71 L12.81 68.42 L15.89 66.64 L15.89 65.93 L12.81 67.71 ZM17.72 70.55 L17.72 71.25 L20.8 69.48
								 L20.8 68.77 L17.72 70.55 ZM22.63 73.38 L22.63 74.09 L25.71 72.31 L25.71 71.6 L22.63 73.38 ZM27.54
								 76.22 L27.54 76.93 L30.62 75.15 L30.62 74.44 L27.54 76.22 ZM32.46 79.05 L32.46 79.76 L35.54 77.98
								 L35.54 77.28 L32.46 79.05 ZM34.09 80.71 L37.37 82.6 L37.37 81.89 L34.09 80 L34.09 80.71 ZM37.37
								 81.89 L37.37 82.6 L40.45 80.82 L40.45 80.11 L37.37 81.89 ZM0 66.36 L3.27 68.25 L3.27 67.54 L0 65.65
								 L0 66.36 ZM4.91 69.2 L8.19 71.09 L8.19 70.38 L4.91 68.49 L4.91 69.2 ZM9.82 72.03 L22.92 79.59 L22.92
								 78.89 L9.82 71.32 L9.82 72.03 ZM24.56 80.54 L27.84 82.43 L27.84 81.72 L24.56 79.83 L24.56 80.54
								 ZM3.27 67.54 L3.27 68.25 L6.35 66.47 L6.35 65.76 L3.27 67.54 ZM8.19 70.38 L8.19 71.09 L11.27 69.31
								 L11.27 68.6 L8.19 70.38 ZM22.92 78.89 L22.92 79.59 L26 77.82 L26 77.11 L22.92 78.89 ZM27.84 81.72
								 L27.84 82.43 L30.92 80.65 L30.92 79.94 L27.84 81.72 ZM29.47 83.38 L32.75 85.27 L32.75 84.56 L29.47
								 82.67 L29.47 83.38 ZM32.75 84.56 L32.75 85.27 L35.83 83.49 L35.83 82.78 L32.75 84.56 Z"
							class="st10"/>
				</g>
			</g>
		</g>
	</g>
</svg>
