<?xml version="1.0" encoding="UTF-8"?>
<!DOCTYPE svg PUBLIC "-//W3C//DTD SVG 1.1//EN" "http://www.w3.org/Graphics/SVG/1.1/DTD/svg11.dtd">
<!-- Creator: CorelDRAW 2017 -->
<svg xmlns="http://www.w3.org/2000/svg" xml:space="preserve" width="347mm" height="99.5mm" version="1.1" style="shape-rendering:geometricPrecision; text-rendering:geometricPrecision; image-rendering:optimizeQuality; fill-rule:evenodd; clip-rule:evenodd"
viewBox="0 0 34700 9950"
 xmlns:xlink="http://www.w3.org/1999/xlink">
 <defs>
  <style type="text/css">
   <![CDATA[
    .fil3 {fill:green}
    .fil4 {fill:#008100}
    .fil5 {fill:#017F01}
    .fil0 {fill:#333133}
    .fil1 {fill:#666666}
    .fil8 {fill:#776A35}
    .fil9 {fill:#7B6C35}
    .fil2 {fill:gray}
    .fil7 {fill:#827235}
    .fil6 {fill:#CAAD37}
   ]]>
  </style>
 </defs>
 <g id="Слой_x0020_1">
  <metadata id="CorelCorpID_0Corel-Layer"/>
  <g id="_2684293184288">
   <path class="fil0" d="M25618.36 7124.74l35.67 0 0 -35.28 35.66 0 0 -35.28 178.29 0 0 35.28 35.65 0 0 35.28 35.66 0 0 176.39 -35.66 0 0 35.27 -71.31 0 0 35.28 -106.98 0 0 -35.28 -71.31 0 0 -70.55 -35.67 0 0 -141.11zm-998.43 176.39l-35.65 0 0 35.27 -35.66 0 0 35.28 -142.63 0 0 -35.28 -35.66 0 0 -35.27 -35.66 0 0 -211.67 71.32 0 0 -35.28 178.29 0 0 35.28 35.65 0 0 70.56 35.66 0 0 105.83 -35.66 0 0 35.28zm-1604.61 -176.39l35.66 0 0 -35.28 35.66 0 0 -35.28 178.29 0 0 35.28 35.66 0 0 35.28 35.65 0 0 141.11 -35.65 0 0 70.55 -71.32 0 0 35.28 -106.97 0 0 -35.28 -71.32 0 0 -70.55 -35.66 0 0 -141.11zm-1319.35 35.28l35.65 0 0 -70.56 35.66 0 0 -35.28 178.3 0 0 35.28 71.32 0 0 211.67 -35.66 0 0 35.27 -35.66 0 0 35.28 -142.64 0 0 -35.28 -35.66 0 0 -35.27 -35.66 0 0 -35.28 -35.65 0 0 -105.83zm-998.43 176.38l-71.32 0 0 35.28 -106.97 0 0 -35.28 -71.32 0 0 -35.27 -35.65 0 0 -176.39 35.65 0 0 -35.28 35.66 0 0 -35.28 178.29 0 0 35.28 35.66 0 0 35.28 35.66 0 0 141.11 -35.66 0 0 70.55zm-1604.62 -176.38l35.67 0 0 -70.56 35.65 0 0 -35.28 178.29 0 0 35.28 35.66 0 0 35.28 35.66 0 0 176.39 -35.66 0 0 35.27 -35.66 0 0 35.28 -142.63 0 0 -35.28 -35.66 0 0 -35.27 -35.65 0 0 -35.28 -35.67 0 0 -105.83zm-998.43 176.38l-71.31 0 0 35.28 -106.98 0 0 -35.28 -71.31 0 0 -35.27 -35.66 0 0 -176.39 35.66 0 0 -35.28 35.65 0 0 -35.28 178.29 0 0 35.28 35.66 0 0 35.28 35.66 0 0 141.11 -35.66 0 0 70.55zm-1604.61 -211.66l35.66 0 0 -35.28 35.66 0 0 -35.28 178.29 0 0 35.28 35.65 0 0 35.28 35.66 0 0 176.39 -35.66 0 0 35.27 -35.65 0 0 35.28 -142.64 0 0 -35.28 -35.65 0 0 -35.27 -35.66 0 0 -35.28 -35.66 0 0 -141.11zm6525.44 -846.67l35.66 0 0 -35.28 35.66 0 0 -35.27 178.29 0 0 35.27 35.66 0 0 35.28 35.65 0 0 176.39 -35.65 0 0 35.28 -35.66 0 0 35.28 -178.29 0 0 -35.28 -35.66 0 0 -35.28 -35.66 0 0 -176.39zm2603.04 0l35.67 0 0 -35.28 35.66 0 0 -35.27 178.29 0 0 35.27 35.65 0 0 35.28 35.66 0 0 176.39 -35.66 0 0 35.28 -35.65 0 0 35.28 -142.64 0 0 -35.28 -71.31 0 0 -70.56 -35.67 0 0 -141.11zm-998.43 176.39l-35.65 0 0 35.28 -35.66 0 0 35.28 -142.63 0 0 -35.28 -35.66 0 0 -35.28 -35.66 0 0 -176.39 35.66 0 0 -35.28 35.66 0 0 -35.27 142.63 0 0 35.27 71.31 0 0 70.56 35.66 0 0 105.83 -35.66 0 0 35.28zm-2923.96 -141.11l35.65 0 0 -35.28 35.66 0 0 -35.28 35.66 0 0 -35.27 142.64 0 0 35.27 35.66 0 0 35.28 35.66 0 0 176.39 -35.66 0 0 35.28 -35.66 0 0 35.28 -142.64 0 0 -35.28 -35.66 0 0 -35.28 -35.66 0 0 -35.28 -35.65 0 0 -105.83zm-998.43 176.39l-71.32 0 0 35.28 -142.63 0 0 -35.28 -35.66 0 0 -35.28 -35.65 0 0 -176.39 35.65 0 0 -35.28 35.66 0 0 -35.27 178.29 0 0 35.27 35.66 0 0 35.28 35.66 0 0 141.11 -35.66 0 0 70.56zm-1604.62 -176.39l35.67 0 0 -70.56 71.31 0 0 -35.27 142.63 0 0 35.27 35.66 0 0 35.28 35.66 0 0 176.39 -35.66 0 0 35.28 -35.66 0 0 35.28 -142.63 0 0 -35.28 -35.66 0 0 -35.28 -35.65 0 0 -35.28 -35.67 0 0 -105.83zm-998.43 176.39l-71.31 0 0 35.28 -142.64 0 0 -35.28 -35.65 0 0 -35.28 -35.66 0 0 -176.39 35.66 0 0 -35.28 35.65 0 0 -35.27 178.29 0 0 35.27 35.66 0 0 70.56 35.66 0 0 105.83 -35.66 0 0 70.56zm-1604.61 -176.39l35.66 0 0 -70.56 71.31 0 0 -35.27 142.64 0 0 35.27 35.65 0 0 35.28 35.66 0 0 176.39 -35.66 0 0 35.28 -35.65 0 0 35.28 -142.64 0 0 -35.28 -71.31 0 0 -70.56 -35.66 0 0 -105.83zm3993.71 -917.22l0 -35.28 178.29 0 0 35.28 35.66 0 0 35.28 35.66 0 0 176.39 -35.66 0 0 35.27 -35.66 0 0 35.28 -178.29 0 0 -35.28 -35.66 0 0 -35.27 -35.65 0 0 -176.39 35.65 0 0 -35.28 35.66 0zm-2389.1 211.67l0 35.27 -35.66 0 0 35.28 -178.29 0 0 -35.28 -35.65 0 0 -35.27 -35.66 0 0 -176.39 35.66 0 0 -35.28 35.65 0 0 -35.28 142.64 0 0 35.28 71.31 0 0 70.55 35.66 0 0 141.12 -35.66 0zm998.43 -141.12l35.67 0 0 -35.27 35.65 0 0 -35.28 35.66 0 0 -35.28 142.63 0 0 35.28 35.66 0 0 35.28 35.66 0 0 176.39 -35.66 0 0 35.27 -35.66 0 0 35.28 -142.63 0 0 -35.28 -71.31 0 0 -70.55 -35.67 0 0 -105.84zm-2531.72 176.39l-35.66 0 0 -70.55 -35.66 0 0 -105.84 35.66 0 0 -70.55 71.31 0 0 -35.28 142.64 0 0 35.28 35.65 0 0 35.28 35.66 0 0 176.39 -35.66 0 0 35.27 -35.65 0 0 35.28 -178.29 0 0 -35.28zm-15190.38 -1199.44l-71.32 0 0 35.28 -71.31 0 0 35.27 -35.66 0 0 35.28 -35.66 0 0 35.28 -35.66 0 0 70.56 -35.66 0 0 70.55 -35.65 0 0 3316.11 35.65 0 0 105.83 35.66 0 0 35.28 35.66 0 0 70.56 71.32 0 0 35.27 35.65 0 0 35.28 71.32 0 0 35.28 32092.34 0 0 -35.28 71.32 0 0 -35.28 35.66 0 0 -35.27 35.65 0 0 -35.28 35.66 0 0 -35.28 35.66 0 0 -70.55 35.66 0 0 -70.56 35.65 0 0 -3316.11 -35.65 0 0 -70.55 -35.66 0 0 -70.56 -35.66 0 0 -35.28 -35.66 0 0 -35.28 -35.65 0 0 -35.27 -71.32 0 0 -35.28 -106.97 0 0 -35.28 -31985.37 0 0 35.28z"/>
   <polygon class="fil1" points="4072.06,633.63 4036.78,633.63 4036.78,668.91 4001.5,668.91 4001.5,704.19 3966.23,704.19 3966.23,739.47 3930.95,739.47 3930.95,774.74 3895.67,774.74 3895.67,810.02 3860.39,810.02 3860.39,845.3 3825.12,845.3 3825.12,880.58 3754.56,880.58 3754.56,915.85 3719.28,915.85 3719.28,951.13 3684,951.13 3684,986.41 3648.73,986.41 3648.73,1021.69 3613.45,1021.69 3613.45,1056.97 3578.17,1056.97 3578.17,1092.24 3542.89,1092.24 3542.89,1127.52 3507.62,1127.52 3507.62,1162.8 3437.06,1162.8 3437.06,1198.08 3401.78,1198.08 3401.78,1233.35 3366.5,1233.35 3366.5,1268.63 3331.23,1268.63 3331.23,1303.91 3295.95,1303.91 3295.95,1339.19 3260.67,1339.19 3260.67,1374.47 3225.39,1374.47 3225.39,1409.74 3190.12,1409.74 3190.12,1445.02 3119.56,1445.02 3119.56,1480.3 3084.28,1480.3 3084.28,1515.58 3049.01,1515.58 3049.01,1550.85 3013.73,1550.85 3013.73,1586.13 2978.45,1586.13 2978.45,1621.41 2943.17,1621.41 2943.17,1656.69 2907.89,1656.69 2907.89,1691.96 2872.62,1691.96 2872.62,1727.24 2802.06,1727.24 2802.06,1762.52 2766.78,1762.52 2766.78,1797.8 2731.51,1797.8 2731.51,1833.08 2696.23,1833.08 2696.23,1868.35 2660.95,1868.35 2660.95,1903.63 2625.67,1903.63 2625.67,1938.91 2590.39,1938.91 2590.39,1974.19 2555.12,1974.19 2555.12,2009.46 2519.84,2009.46 2519.84,2044.74 2449.28,2044.74 2449.28,2080.02 2414.01,2080.02 2414.01,2115.3 2378.73,2115.3 2378.73,2150.58 2343.45,2150.58 2343.45,2185.85 2308.17,2185.85 2308.17,2221.13 2272.89,2221.13 2272.89,2256.41 2237.62,2256.41 2237.62,2291.69 2202.34,2291.69 2202.34,2326.96 2131.78,2326.96 2131.78,2362.24 2096.51,2362.24 2096.51,2397.52 2061.23,2397.52 2061.23,2432.8 2025.95,2432.8 2025.95,2468.08 1990.67,2468.08 1990.67,2503.35 1955.39,2503.35 1955.39,2538.63 1920.12,2538.63 1920.12,2573.91 1884.84,2573.91 1884.84,2609.19 1814.28,2609.19 1814.28,2644.46 1779.01,2644.46 1779.01,2679.74 1743.73,2679.74 1743.73,2715.02 1708.45,2715.02 1708.45,2750.3 1673.17,2750.3 1673.17,2785.58 1637.89,2785.58 1637.89,2820.85 1602.62,2820.85 1602.62,2856.13 1567.34,2856.13 1567.34,2891.41 1496.78,2891.41 1496.78,2926.69 1461.51,2926.69 1461.51,2961.96 1426.23,2961.96 1426.23,2997.24 1390.95,2997.24 1390.95,3032.52 1355.67,3032.52 1355.67,3067.8 1320.39,3067.8 1320.39,3103.07 1285.12,3103.07 1285.12,3138.35 1249.84,3138.35 1249.84,3173.63 1179.28,3173.63 1179.28,3208.91 1144.01,3208.91 1144.01,3244.19 1108.73,3244.19 1108.73,3279.46 1073.45,3279.46 1073.45,3314.74 1038.17,3314.74 1038.17,3350.02 1002.89,3350.02 1002.89,3385.3 967.62,3385.3 967.62,3420.57 932.34,3420.57 932.34,3455.85 861.78,3455.85 861.78,3491.13 826.51,3491.13 826.51,3526.41 791.23,3526.41 791.23,3561.69 755.95,3561.69 755.95,3596.96 720.67,3596.96 720.67,3632.24 685.39,3632.24 685.39,3667.52 650.12,3667.52 650.12,3702.8 614.84,3702.8 614.84,3738.07 544.28,3738.07 544.28,3773.35 509.01,3773.35 509.01,3843.91 720.67,3843.91 720.67,3808.63 755.95,3808.63 755.95,3773.35 861.78,3773.35 861.78,3738.07 33881.78,3738.07 33881.78,3773.35 33952.33,3773.35 33952.33,3808.63 34022.89,3808.63 34022.89,3843.91 34093.44,3843.91 34093.44,3879.19 34128.72,3879.19 34128.72,3914.46 34234.55,3914.46 34234.55,3879.19 34199.28,3879.19 34199.28,3843.91 34164,3843.91 34164,3808.63 34093.44,3808.63 34093.44,3773.35 34058.17,3773.35 34058.17,3738.07 34022.89,3738.07 34022.89,3702.8 33952.33,3702.8 33952.33,3667.52 33917.05,3667.52 33917.05,3632.24 33881.78,3632.24 33881.78,3596.96 33811.22,3596.96 33811.22,3561.69 33775.94,3561.69 33775.94,3526.41 33705.39,3526.41 33705.39,3491.13 33670.11,3491.13 33670.11,3455.85 33634.83,3455.85 33634.83,3420.57 33564.28,3420.57 33564.28,3385.3 33529,3385.3 33529,3350.02 33493.72,3350.02 33493.72,3314.74 33423.17,3314.74 33423.17,3279.46 33387.89,3279.46 33387.89,3244.19 33317.33,3244.19 33317.33,3208.91 33282.05,3208.91 33282.05,3173.63 33246.78,3173.63 33246.78,3138.35 33176.22,3138.35 33176.22,3103.07 33140.94,3103.07 33140.94,3067.8 33105.67,3067.8 33105.67,3032.52 33035.11,3032.52 33035.11,2997.24 32999.83,2997.24 32999.83,2961.96 32964.55,2961.96 32964.55,2926.69 32894,2926.69 32894,2891.41 32858.72,2891.41 32858.72,2856.13 32788.17,2856.13 32788.17,2820.85 32752.89,2820.85 32752.89,2785.58 32717.61,2785.58 32717.61,2750.3 32647.05,2750.3 32647.05,2715.02 32611.78,2715.02 32611.78,2679.74 32576.5,2679.74 32576.5,2644.46 32505.94,2644.46 32505.94,2609.19 32470.67,2609.19 32470.67,2573.91 32400.11,2573.91 32400.11,2538.63 32364.83,2538.63 32364.83,2503.35 32329.55,2503.35 32329.55,2468.08 32259,2468.08 32259,2432.8 32223.72,2432.8 32223.72,2397.52 32188.44,2397.52 32188.44,2362.24 32117.89,2362.24 32117.89,2326.96 32082.61,2326.96 32082.61,2291.69 32047.33,2291.69 32047.33,2256.41 31976.78,2256.41 31976.78,2221.13 31941.5,2221.13 31941.5,2185.85 31870.94,2185.85 31870.94,2150.58 31835.67,2150.58 31835.67,2115.3 31800.39,2115.3 31800.39,2080.02 31729.83,2080.02 31729.83,2044.74 31694.55,2044.74 31694.55,2009.46 31659.28,2009.46 31659.28,1974.19 31588.72,1974.19 31588.72,1938.91 31553.44,1938.91 31553.44,1903.63 31482.89,1903.63 31482.89,1868.35 31447.61,1868.35 31447.61,1833.08 31412.33,1833.08 31412.33,1797.8 31341.78,1797.8 31341.78,1762.52 31306.5,1762.52 31306.5,1727.24 31271.22,1727.24 31271.22,1691.96 31200.67,1691.96 31200.67,1656.69 31165.39,1656.69 31165.39,1621.41 31130.11,1621.41 31130.11,1586.13 31059.56,1586.13 31059.56,1550.85 31024.28,1550.85 31024.28,1515.58 30953.72,1515.58 30953.72,1480.3 30918.44,1480.3 30918.44,1445.02 30883.17,1445.02 30883.17,1409.74 30812.61,1409.74 30812.61,1374.47 30777.33,1374.47 30777.33,1339.19 30742.06,1339.19 30742.06,1303.91 30671.5,1303.91 30671.5,1268.63 30636.22,1268.63 30636.22,1233.35 30600.94,1233.35 30600.94,1198.08 30530.39,1198.08 30530.39,1162.8 30495.11,1162.8 30495.11,1127.52 30424.56,1127.52 30424.56,1092.24 30389.28,1092.24 30389.28,1056.97 30354,1056.97 30354,1021.69 30283.44,1021.69 30283.44,986.41 30248.17,986.41 30248.17,951.13 30212.89,951.13 30212.89,915.85 30142.33,915.85 30142.33,880.58 30107.06,880.58 30107.06,845.3 30036.5,845.3 30036.5,810.02 30001.22,810.02 30001.22,774.74 29965.94,774.74 29965.94,739.47 29895.39,739.47 29895.39,704.19 29860.11,704.19 29860.11,668.91 29824.83,668.91 29824.83,633.63 29754.28,633.63 29754.28,598.35 4072.06,598.35 "/>
   <path class="fil2" d="M1049.9 4725.85l35.65 0 0 -70.55 35.66 0 0 -70.56 35.66 0 0 -35.28 35.66 0 0 -35.28 35.66 0 0 -35.27 71.31 0 0 -35.28 71.32 0 0 -35.28 31985.37 0 0 35.28 106.97 0 0 35.28 71.32 0 0 35.27 35.65 0 0 35.28 35.66 0 0 35.28 35.66 0 0 70.56 35.66 0 0 70.55 35.65 0 0 3316.11 -35.65 0 0 70.56 -35.66 0 0 70.55 -35.66 0 0 35.28 -35.66 0 0 35.28 -35.65 0 0 35.27 -35.66 0 0 35.28 -71.32 0 0 35.28 -32092.34 0 0 -35.28 -71.32 0 0 -35.28 -35.65 0 0 -35.27 -71.32 0 0 -70.56 -35.66 0 0 -35.28 -35.66 0 0 -105.83 -35.65 0 0 -3316.11zm-641.85 -881.94l0 35.28 -35.66 0 0 35.27 -35.66 0 0 35.28 -35.66 0 0 35.28 -35.65 0 0 70.55 -35.66 0 0 70.56 -35.66 0 0 4656.66 35.66 0 0 105.84 35.66 0 0 35.27 35.65 0 0 70.56 35.66 0 0 35.28 35.66 0 0 35.27 35.66 0 0 35.28 71.31 0 0 35.28 71.33 0 0 35.28 106.97 0 0 35.28 33304.71 0 0 -35.28 106.98 0 0 -35.28 71.32 0 0 -35.28 71.31 0 0 -35.28 35.66 0 0 -35.27 35.66 0 0 -35.28 35.66 0 0 -70.56 35.65 0 0 -35.27 35.66 0 0 -105.84 35.66 0 0 -4656.66 -35.66 0 0 -70.56 -35.66 0 0 -70.55 -35.65 0 0 -35.28 -35.66 0 0 -35.28 -35.66 0 0 -35.27 -35.66 0 0 -35.28 -71.31 0 0 -35.28 -71.32 0 0 -35.28 -71.32 0 0 -35.28 -33376.03 0 0 35.28 -106.98 0 0 35.28 -35.66 0 0 35.28 -71.31 0z"/>
   <polygon class="fil3" points="23086.78,6242.79 23051.5,6242.79 23051.5,6278.07 23016.22,6278.07 23016.22,6454.46 23051.5,6454.46 23051.5,6489.74 23086.78,6489.74 23086.78,6525.02 23263.17,6525.02 23263.17,6489.74 23298.45,6489.74 23298.45,6454.46 23333.72,6454.46 23333.72,6278.07 23298.45,6278.07 23298.45,6242.79 23263.17,6242.79 23263.17,6207.52 23086.78,6207.52 "/>
   <polygon class="fil3" points="20481.5,6242.79 20446.22,6242.79 20446.22,6278.07 20410.95,6278.07 20410.95,6454.46 20446.22,6454.46 20446.22,6489.74 20481.5,6489.74 20481.5,6525.02 20622.61,6525.02 20622.61,6489.74 20693.17,6489.74 20693.17,6419.18 20728.45,6419.18 20728.45,6278.07 20693.17,6278.07 20693.17,6242.79 20657.89,6242.79 20657.89,6207.52 20481.5,6207.52 "/>
   <polygon class="fil4" points="25692.06,6242.79 25656.78,6242.79 25656.78,6278.07 25621.5,6278.07 25621.5,6419.18 25656.78,6419.18 25656.78,6489.74 25727.33,6489.74 25727.33,6525.02 25868.45,6525.02 25868.45,6489.74 25903.72,6489.74 25903.72,6454.46 25939,6454.46 25939,6278.07 25903.72,6278.07 25903.72,6242.79 25868.45,6242.79 25868.45,6207.52 25692.06,6207.52 "/>
   <polygon class="fil5" points="21771.5,7089.46 21736.22,7089.46 21736.22,7160.02 21700.95,7160.02 21700.95,7265.85 21736.22,7265.85 21736.22,7301.13 21771.5,7301.13 21771.5,7336.4 21806.78,7336.4 21806.78,7371.68 21947.89,7371.68 21947.89,7336.4 21983.17,7336.4 21983.17,7301.13 22018.45,7301.13 22018.45,7089.46 21947.89,7089.46 21947.89,7054.18 21771.5,7054.18 "/>
   <polygon class="fil6" points="20728.45,5466.68 20693.17,5466.68 20693.17,5396.13 20622.61,5396.13 20622.61,5360.85 20516.78,5360.85 20516.78,5396.13 20446.22,5396.13 20446.22,5431.41 20410.95,5431.41 20410.95,5607.8 20446.22,5607.8 20446.22,5643.07 20481.5,5643.07 20481.5,5678.35 20657.89,5678.35 20657.89,5643.07 20693.17,5643.07 20693.17,5607.8 20728.45,5607.8 "/>
   <polygon class="fil4" points="17886.22,6242.79 17850.95,6242.79 17850.95,6278.07 17815.67,6278.07 17815.67,6454.46 17850.95,6454.46 17850.95,6489.74 17886.22,6489.74 17886.22,6525.02 18027.34,6525.02 18027.34,6489.74 18097.89,6489.74 18097.89,6419.18 18133.17,6419.18 18133.17,6313.35 18097.89,6313.35 18097.89,6242.79 18062.61,6242.79 18062.61,6207.52 17886.22,6207.52 "/>
   <polygon class="fil6" points="18133.17,5572.52 18133.17,5466.68 18097.89,5466.68 18097.89,5396.13 18027.34,5396.13 18027.34,5360.85 17886.22,5360.85 17886.22,5396.13 17850.95,5396.13 17850.95,5431.41 17815.67,5431.41 17815.67,5607.8 17850.95,5607.8 17850.95,5643.07 17886.22,5643.07 17886.22,5678.35 18062.61,5678.35 18062.61,5643.07 18097.89,5643.07 18097.89,5572.52 "/>
   <polygon class="fil5" points="16560.95,7089.46 16525.67,7089.46 16525.67,7124.74 16490.39,7124.74 16490.39,7265.85 16525.67,7265.85 16525.67,7301.13 16560.95,7301.13 16560.95,7336.4 16596.22,7336.4 16596.22,7371.68 16737.34,7371.68 16737.34,7336.4 16772.61,7336.4 16772.61,7301.13 16807.89,7301.13 16807.89,7124.74 16772.61,7124.74 16772.61,7089.46 16737.34,7089.46 16737.34,7054.18 16560.95,7054.18 "/>
   <polygon class="fil4" points="20491.5,7089.46 20456.22,7089.46 20456.22,7124.74 20420.95,7124.74 20420.95,7301.13 20456.22,7301.13 20456.22,7336.4 20526.78,7336.4 20526.78,7371.68 20632.61,7371.68 20632.61,7336.4 20703.17,7336.4 20703.17,7265.85 20738.45,7265.85 20738.45,7124.74 20703.17,7124.74 20703.17,7089.46 20667.89,7089.46 20667.89,7054.18 20491.5,7054.18 "/>
   <polygon class="fil5" points="24412.06,7089.46 24341.5,7089.46 24341.5,7301.13 24376.78,7301.13 24376.78,7336.4 24412.06,7336.4 24412.06,7371.68 24553.17,7371.68 24553.17,7336.4 24588.45,7336.4 24588.45,7301.13 24623.72,7301.13 24623.72,7265.85 24659,7265.85 24659,7160.02 24623.72,7160.02 24623.72,7089.46 24588.45,7089.46 24588.45,7054.18 24412.06,7054.18 "/>
   <polygon class="fil3" points="25692.06,7089.46 25656.78,7089.46 25656.78,7124.74 25621.5,7124.74 25621.5,7265.85 25656.78,7265.85 25656.78,7336.4 25727.33,7336.4 25727.33,7371.68 25833.17,7371.68 25833.17,7336.4 25903.72,7336.4 25903.72,7301.13 25939,7301.13 25939,7124.74 25903.72,7124.74 25903.72,7089.46 25868.45,7089.46 25868.45,7054.18 25692.06,7054.18 "/>
   <polygon class="fil4" points="17886.22,7089.46 17850.95,7089.46 17850.95,7124.74 17815.67,7124.74 17815.67,7301.13 17850.95,7301.13 17850.95,7336.4 17921.5,7336.4 17921.5,7371.68 18027.34,7371.68 18027.34,7336.4 18097.89,7336.4 18097.89,7265.85 18133.17,7265.85 18133.17,7124.74 18097.89,7124.74 18097.89,7089.46 18062.61,7089.46 18062.61,7054.18 17886.22,7054.18 "/>
   <polygon class="fil4" points="16606.22,6242.79 16535.67,6242.79 16535.67,6313.35 16500.39,6313.35 16500.39,6419.18 16535.67,6419.18 16535.67,6489.74 16606.22,6489.74 16606.22,6525.02 16747.34,6525.02 16747.34,6489.74 16782.61,6489.74 16782.61,6454.46 16817.89,6454.46 16817.89,6278.07 16782.61,6278.07 16782.61,6242.79 16747.34,6242.79 16747.34,6207.52 16606.22,6207.52 "/>
   <polygon class="fil4" points="23086.78,7089.46 23051.5,7089.46 23051.5,7124.74 23016.22,7124.74 23016.22,7265.85 23051.5,7265.85 23051.5,7336.4 23122.06,7336.4 23122.06,7371.68 23227.89,7371.68 23227.89,7336.4 23298.45,7336.4 23298.45,7265.85 23333.72,7265.85 23333.72,7124.74 23298.45,7124.74 23298.45,7089.46 23263.17,7089.46 23263.17,7054.18 23086.78,7054.18 "/>
   <polygon class="fil5" points="19166.22,7089.46 19130.95,7089.46 19130.95,7160.02 19095.67,7160.02 19095.67,7265.85 19130.95,7265.85 19130.95,7301.13 19166.22,7301.13 19166.22,7336.4 19201.5,7336.4 19201.5,7371.68 19342.61,7371.68 19342.61,7336.4 19377.89,7336.4 19377.89,7301.13 19413.17,7301.13 19413.17,7124.74 19377.89,7124.74 19377.89,7089.46 19342.61,7089.46 19342.61,7054.18 19166.22,7054.18 "/>
   <polygon class="fil4" points="19201.5,6242.79 19130.95,6242.79 19130.95,6313.35 19095.67,6313.35 19095.67,6419.18 19130.95,6419.18 19130.95,6454.46 19166.22,6454.46 19166.22,6489.74 19201.5,6489.74 19201.5,6525.02 19342.61,6525.02 19342.61,6489.74 19377.89,6489.74 19377.89,6454.46 19413.17,6454.46 19413.17,6278.07 19377.89,6278.07 19377.89,6242.79 19342.61,6242.79 19342.61,6207.52 19201.5,6207.52 "/>
   <polygon class="fil4" points="24412.06,6242.79 24376.78,6242.79 24376.78,6278.07 24341.5,6278.07 24341.5,6454.46 24376.78,6454.46 24376.78,6489.74 24412.06,6489.74 24412.06,6525.02 24553.17,6525.02 24553.17,6489.74 24588.45,6489.74 24588.45,6454.46 24623.72,6454.46 24623.72,6419.18 24659,6419.18 24659,6313.35 24623.72,6313.35 24623.72,6242.79 24553.17,6242.79 24553.17,6207.52 24412.06,6207.52 "/>
   <polygon class="fil6" points="16560.95,5396.13 16560.95,5431.41 16525.67,5431.41 16525.67,5466.68 16490.39,5466.68 16490.39,5572.52 16525.67,5572.52 16525.67,5643.07 16596.22,5643.07 16596.22,5678.35 16737.34,5678.35 16737.34,5643.07 16772.61,5643.07 16772.61,5607.8 16807.89,5607.8 16807.89,5431.41 16772.61,5431.41 16772.61,5396.13 16737.34,5396.13 16737.34,5360.85 16596.22,5360.85 16596.22,5396.13 "/>
   <polygon class="fil6" points="19201.5,5396.13 19166.22,5396.13 19166.22,5431.41 19130.95,5431.41 19130.95,5466.68 19095.67,5466.68 19095.67,5572.52 19130.95,5572.52 19130.95,5643.07 19201.5,5643.07 19201.5,5678.35 19342.61,5678.35 19342.61,5643.07 19377.89,5643.07 19377.89,5607.8 19413.17,5607.8 19413.17,5431.41 19377.89,5431.41 19377.89,5396.13 19342.61,5396.13 19342.61,5360.85 19201.5,5360.85 "/>
   <polygon class="fil4" points="21806.78,6242.79 21771.5,6242.79 21771.5,6278.07 21736.22,6278.07 21736.22,6313.35 21700.95,6313.35 21700.95,6419.18 21736.22,6419.18 21736.22,6454.46 21771.5,6454.46 21771.5,6489.74 21806.78,6489.74 21806.78,6525.02 21947.89,6525.02 21947.89,6489.74 21983.17,6489.74 21983.17,6454.46 22018.45,6454.46 22018.45,6278.07 21983.17,6278.07 21983.17,6242.79 21947.89,6242.79 21947.89,6207.52 21806.78,6207.52 "/>
   <polygon class="fil7" points="20546.78,5360.85 20511.5,5360.85 20511.5,5396.13 20546.78,5396.13 "/>
   <polygon class="fil8" points="20687.89,5396.13 20687.89,5360.85 20652.61,5360.85 20652.61,5396.13 "/>
   <polygon class="fil7" points="16630.95,5396.13 16595.67,5396.13 16595.67,5431.41 16630.95,5431.41 "/>
   <polygon class="fil9" points="18183.17,5572.52 18147.89,5572.52 18147.89,5607.8 18183.17,5607.8 "/>
   <polygon class="fil9" points="20758.45,5466.68 20758.45,5431.41 20723.17,5431.41 20723.17,5466.68 "/>
   <polygon class="fil9" points="16666.22,5678.35 16666.22,5643.07 16630.95,5643.07 16630.95,5678.35 "/>
  </g>
 </g>
</svg>
