<?xml version="1.0" encoding="UTF-8"?>
<!DOCTYPE svg PUBLIC "-//W3C//DTD SVG 1.1//EN" "http://www.w3.org/Graphics/SVG/1.1/DTD/svg11.dtd">
<!-- Creator: CorelDRAW X6 -->
<svg xmlns="http://www.w3.org/2000/svg" xml:space="preserve" width="118px" height="154px" version="1.1" style="shape-rendering:geometricPrecision; text-rendering:geometricPrecision; image-rendering:optimizeQuality; fill-rule:evenodd; clip-rule:evenodd"
viewBox="0 0 118 153"
 xmlns:xlink="http://www.w3.org/1999/xlink">
 <defs>
  <style type="text/css">
   <![CDATA[
    .str1 {stroke:#2B2A29;stroke-width:0.67496}
    .str0 {stroke:#2B2A29;stroke-width:0.89916}
    .fil0 {fill:#B2B3B3}
    .fil1 {fill:#008DD2}
    .fil3 {fill:#11467F}
    .fil4 {fill:#A9A8A7}
    .fil5 {fill:#FEFEFE}
    .fil2 {fill:#2B2A29;fill-rule:nonzero}
   ]]>
  </style>
 </defs>
 <g id="Слой_x0020_1">
  <metadata id="CorelCorpID_0Corel-Layer"/>
  <rect class="fil0 str0" x="9" y="4" width="100" height="145"/>
  <polygon class="fil1 str1" points="9,13 47,13 47,29 91,29 91,13 109,13 109,141 9,141 "/>
  <polygon class="fil2" points="21,91 22,91 22,101 29,91 31,91 31,104 30,104 30,94 22,104 21,104 "/>
  <polygon id="1" class="fil2" points="35,91 45,91 45,104 43,104 43,92 37,92 37,104 35,104 "/>
  <polygon id="2" class="fil2" points="49,91 50,91 50,101 58,91 59,91 59,104 58,104 58,94 51,104 49,104 "/>
  <path id="3" class="fil2" d="M63 104l0 -13 5 0c1,0 2,0 2,0 1,0 1,1 2,1 0,1 0,2 0,2 0,1 0,1 0,2 0,0 -1,1 -2,1 1,0 2,1 2,1 1,1 1,1 1,2 0,1 0,1 0,2 -1,1 -1,1 -1,1 -1,1 -1,1 -2,1 0,0 -1,0 -2,0l-5 0zm2 -8l3 0c0,0 1,0 1,0 1,0 1,0 1,0 1,-1 1,-1 1,-2 0,0 0,-1 -1,-1 0,0 0,0 -1,-1 0,0 -1,0 -2,0l-2 0 0 4zm0 7l3 0c1,0 1,0 1,-1 1,0 1,0 1,0 1,0 1,0 1,-1 0,0 0,0 0,-1 0,0 0,-1 0,-1 0,0 -1,-1 -1,-1 -1,0 -1,0 -2,0l-3 0 0 5z"/>
  <polygon class="fil2" points="76,100 76,98 81,98 81,100 "/>
  <path id="1" class="fil2" d="M88 104l-1 0 0 -10c-1,0 -1,0 -2,1 -1,0 -1,0 -2,1l0 -2c1,0 2,-1 3,-2 0,0 1,-1 1,-1l1 0 0 13z"/>
  <path id="2" class="fil2" d="M92 97c0,-1 1,-2 1,-3 0,-1 1,-2 1,-3 1,0 2,0 3,0 1,0 1,0 2,0 0,0 1,1 1,1 0,1 1,2 1,2 0,1 0,2 0,3 0,2 0,3 0,4 -1,1 -1,2 -2,3 0,0 -1,0 -2,0 -1,0 -2,0 -3,-1 -1,-1 -2,-3 -2,-6zm2 0c0,3 0,4 1,5 0,1 1,1 2,1 1,0 1,0 2,-1 0,-1 1,-2 1,-5 0,-2 -1,-3 -1,-4 -1,-1 -1,-1 -2,-1 -1,0 -2,0 -2,1 -1,1 -1,2 -1,4z"/>
  <path class="fil2" d="M33 116c0,-2 1,-4 2,-5 1,-2 2,-2 4,-2 2,0 3,0 4,1 1,0 1,1 2,2 1,1 1,2 1,4 0,1 0,2 -1,3 -1,1 -1,2 -2,3 -1,0 -2,1 -4,1 -1,0 -2,-1 -3,-1 -1,-1 -2,-2 -2,-3 -1,-1 -1,-2 -1,-3zm2 0c0,2 0,3 1,4 1,1 2,1 3,1 2,0 3,0 4,-1 1,-1 1,-3 1,-4 0,-1 0,-2 -1,-3 0,-1 -1,-2 -1,-2 -1,0 -2,-1 -3,-1 -1,0 -2,1 -3,2 -1,0 -1,2 -1,4z"/>
  <polygon id="1" class="fil2" points="49,109 59,109 59,122 58,122 58,111 51,111 51,122 49,122 "/>
  <polygon id="2" class="fil2" points="66,122 66,111 62,111 62,109 72,109 72,111 68,111 68,122 "/>
  <polygon id="3" class="fil2" points="75,109 77,109 77,120 84,109 86,109 86,122 84,122 84,112 77,122 75,122 "/>
  <circle class="fil3" cx="34" cy="57" r="16"/>
  <circle class="fil4" cx="98" cy="47" r="3"/>
  <circle class="fil4" cx="98" cy="57" r="3"/>
  <circle class="fil4" cx="98" cy="66" r="3"/>
  <path class="fil1" d="M34 41l0 0 0 0 0 0 0 0 7 8c9,10 8,21 -7,23 -15,-2 -15,-13 -6,-23l6 -8z"/>
  <rect class="fil5" x="27" y="46" width="14.9192" height="21.3155" rx="7" ry="7"/>
 </g>
</svg>
