<?xml version="1.0" encoding="utf-8"?>
<!-- Generator: Adobe Illustrator 21.1.0, SVG Export Plug-In . SVG Version: 6.00 Build 0)  -->
<svg version="1.1" id="Слой_2" xmlns="http://www.w3.org/2000/svg" xmlns:xlink="http://www.w3.org/1999/xlink" x="0px" y="0px"
	 viewBox="0 0 191 280" style="enable-background:new 0 0 191 280;" xml:space="preserve">
<style type="text/css">
	.st0{fill:#BFBEC0;stroke:#000000;stroke-miterlimit:22.9256;}
	.st1{fill-rule:evenodd;clip-rule:evenodd;fill:url(#SVGID_1_);}
	.st2{fill:none;stroke:#000000;stroke-width:0.216;stroke-miterlimit:22.9256;}
	.st3{fill-rule:evenodd;clip-rule:evenodd;fill:#363544;stroke:#000000;stroke-width:0.216;stroke-miterlimit:22.9256;}
	.st4{fill-rule:evenodd;clip-rule:evenodd;fill:none;}
	.st5{font-family:'MyriadPro-Regular';}
	.st6{font-size:12px;}
	.st7{font-size:7.0121px;}
</style>
<g>
	<g>
		<path class="st0" d="M4,272.1c0,2.8,2.2,5,5,5h173.3c2.8,0,5-2.2,5-5V10.5c0-2.8-2.2-5-5-5H9c-2.8,0-5,2.2-5,5V272.1z"/>
	</g>
</g>
<g>
	<linearGradient id="SVGID_1_" gradientUnits="userSpaceOnUse" x1="4.5" y1="141.4017" x2="187.0594" y2="141.4017">
		<stop  offset="0" style="stop-color:#9D9D9C"/>
		<stop  offset="0.25" style="stop-color:#C6C6C6"/>
		<stop  offset="0.7" style="stop-color:#C6C6C6"/>
		<stop  offset="1" style="stop-color:#9D9D9C"/>
	</linearGradient>
	<path class="st1" d="M4.5,271.6c0,2.8,2.2,5,5,5h172.6c2.8,0,5-2.2,5-5V11.2c0-2.8-2.2-5-5-5H9.5c-2.8,0-5,2.2-5,5V271.6z"/>
</g>
<g>
	<g>
		<path class="st0" d="M23.5,266.4c0,5,4,9,9,9h124.1c5,0,9-4,9-9V47.7c0-5-4-9-9-9H32.5c-5,0-9,4-9,9V266.4z"/>
	</g>
</g>
<line class="st2" x1="118.3" y1="49.5" x2="133.9" y2="49.5"/>
<line class="st2" x1="119.2" y1="269.4" x2="134.7" y2="269.4"/>
<line class="st2" x1="119.2" y1="157.1" x2="134.7" y2="157.1"/>
<line class="st2" x1="118.3" y1="103.3" x2="133.9" y2="103.3"/>
<line class="st2" x1="119.3" y1="213.3" x2="134.9" y2="213.3"/>
<rect x="33.2" y="49.5" class="st3" width="93" height="219.9"/>
<rect x="135.5" y="95" class="st4" width="30.4" height="9.7"/>
<text transform="matrix(1.0355 0 0 1 135.5376 103.5166)"><tspan x="0" y="0" class="st5 st6">75</tspan><tspan x="12.3" y="0" class="st5 st7"> </tspan></text>
<rect x="135.5" y="205.4" class="st4" width="30.4" height="9.7"/>
<text transform="matrix(1.0355 0 0 1 135.5376 213.9316)" class="st5 st6">25 </text>
<rect x="134.2" y="261.6" class="st4" width="30.4" height="9.7"/>
<text transform="matrix(1.0355 0 0 1 134.1543 270.0938)" class="st5 st6">0 </text>
<rect x="135.5" y="149.2" class="st4" width="30.4" height="9.7"/>
<text transform="matrix(1.0355 0 0 1 135.5376 157.7695)" class="st5 st6">50 </text>
<rect x="133.2" y="41.7" class="st4" width="33.8" height="9.7"/>
<text transform="matrix(1.0355 0 0 1 133.1543 50.2139)" class="st5 st6">100 </text>
</svg>
