<?xml version="1.0" encoding="UTF-8" standalone="no"?>
<!-- Generator: Adobe Illustrator 9.0, SVG Export Plug-In  -->
<svg
   xmlns:dc="http://purl.org/dc/elements/1.1/"
   xmlns:cc="http://web.resource.org/cc/"
   xmlns:rdf="http://www.w3.org/1999/02/22-rdf-syntax-ns#"
   xmlns:svg="http://www.w3.org/2000/svg"
   xmlns="http://www.w3.org/2000/svg"
   xmlns:xlink="http://www.w3.org/1999/xlink"
   xmlns:sodipodi="http://sodipodi.sourceforge.net/DTD/sodipodi-0.dtd"
   xmlns:inkscape="http://www.inkscape.org/namespaces/inkscape"
   width="200"
   height="200"
   viewBox="0 0 150 150"
   xml:space="preserve"
   id="svg2"
   sodipodi:version="0.32"
   inkscape:version="0.43+devel"
   sodipodi:docname="rack-server.svg"
   sodipodi:docbase="/home/jimmac/gfx/ximian/art/presentations/clipart/out"
   version="1.0"><metadata
   id="metadata395"><rdf:RDF><cc:Work
       rdf:about=""><dc:format>image/svg+xml</dc:format><dc:type
         rdf:resource="http://purl.org/dc/dcmitype/StillImage" /><dc:title>Rack Mounted Server</dc:title><dc:creator><cc:Agent><dc:title>Jakub Steiner</dc:title></cc:Agent></dc:creator><dc:source>http://jimmac.musichall.cz/i.php?i=computer-clipart</dc:source><cc:license
         rdf:resource="http://creativecommons.org/licenses/by-sa/2.5/" /></cc:Work><cc:License
       rdf:about="http://creativecommons.org/licenses/by-sa/2.5/"><cc:permits
         rdf:resource="http://web.resource.org/cc/Reproduction" /><cc:permits
         rdf:resource="http://web.resource.org/cc/Distribution" /><cc:requires
         rdf:resource="http://web.resource.org/cc/Notice" /><cc:requires
         rdf:resource="http://web.resource.org/cc/Attribution" /><cc:permits
         rdf:resource="http://web.resource.org/cc/DerivativeWorks" /><cc:requires
         rdf:resource="http://web.resource.org/cc/ShareAlike" /></cc:License></rdf:RDF></metadata><defs
   id="defs393"><linearGradient
     inkscape:collect="always"
     xlink:href="#aigrd9"
     id="linearGradient4777"
     gradientUnits="userSpaceOnUse"
     x1="54.828602"
     y1="62.557098"
     x2="55.110699"
     y2="104.8682" /><linearGradient
     inkscape:collect="always"
     xlink:href="#aigrd9"
     id="linearGradient4779"
     gradientUnits="userSpaceOnUse"
     x1="54.828602"
     y1="62.557098"
     x2="55.110699"
     y2="104.8682" /></defs><sodipodi:namedview
   inkscape:cy="41.110087"
   inkscape:cx="71.499926"
   inkscape:zoom="1"
   inkscape:window-height="837"
   inkscape:window-width="916"
   inkscape:pageshadow="2"
   inkscape:pageopacity="0.0"
   borderopacity="0.11372549"
   bordercolor="#666"
   pagecolor="#ffffff"
   id="base"
   width="200px"
   height="200px"
   inkscape:showpageshadow="false"
   showborder="true"
   inkscape:window-x="259"
   inkscape:window-y="285"
   inkscape:current-layer="svg2" />
	
	
	<g
   id="g4560"
   transform="translate(1.5,0)"><g
     style="fill-rule:nonzero;stroke:black;stroke-miterlimit:4"
     id="shadow">
		<g
   id="g5"
   style="opacity:0.4">
			<path
   id="path7"
   d="M 10.1,79.5 C 7.8,80.8 7.9,82.6 10.4,83.5 L 103.2,119.2 C 105.7,120.1 108.5,119 109.6,116.6 L 112.4,110.5 C 113.5,108.1 116,104.8 118,103.1 L 145.1,80.1 C 147.1,78.4 146.7,76.5 144.1,75.8 L 62.6,54 C 60.1,53.3 56.1,53.8 53.8,55.1 L 10.1,79.5 z "
   style="stroke:none" />
		</g>
	</g><g
     style="fill-rule:nonzero;stroke:black;stroke-miterlimit:4"
     id="body">
		<g
   id="g10">
			<g
   id="g12">
				<linearGradient
   y2="105.1485"
   x2="55.841202"
   y1="62.837399"
   x1="55.559101"
   gradientUnits="userSpaceOnUse"
   id="aigrd1">
					<stop
   id="stop15"
   style="stop-color:#F8F8F8"
   offset="0" />
					<stop
   id="stop17"
   style="stop-color:#C9C9C9"
   offset="1" />
				</linearGradient>
				<path
   id="path19"
   d="M 5.2,69.5 C 5.2,68.1 6.3,67.4 7.6,67.8 L 104.1,102.3 C 105.4,102.8 106.5,104.3 106.5,105.6 L 106.5,117.3 C 106.5,118.7 105.4,119.4 104.2,118.9 L 7.4,81.8 C 6.1,81.3 5.1,79.8 5.1,78.4 L 5.2,69.5 L 5.2,69.5 z "
   style="fill:url(#aigrd1);stroke:none" />
				<path
   id="path21"
   d="M 5.2,69.5 C 5.2,68.1 6.3,67.4 7.6,67.8 L 104.1,102.3 C 105.4,102.8 106.5,104.3 106.5,105.6 L 106.5,117.3 C 106.5,118.7 105.4,119.4 104.2,118.9 L 7.4,81.8 C 6.1,81.3 5.1,79.8 5.1,78.4 L 5.2,69.5 L 5.2,69.5 z "
   style="fill:none;stroke-width:5.329" />
			</g>
		</g>
		<g
   id="g23">
			<path
   id="path25"
   d="M 130.1,66.8 C 130.1,66.8 130.2,66.8 130.2,66.8 C 130.1,66.7 129.9,66.7 129.8,66.6 C 128.2,66.1 61.9,47.6 59.9,47 C 57.9,46.4 55.4,46.2 54.4,46.6 C 53.2,47 20,66.1 18.2,67.3 C 18,67.5 17.8,67.6 17.6,67.8 C 15.2,69.8 15.3,72.8 15.3,72.8 C 15.3,72.8 15.3,72.7 15.4,72.6 C 15.4,72.8 15.3,72.9 15.3,73.1 L 15.9,81.7 C 15.9,83.3 16.3,84.1 17.7,84.7 C 87.1,111.8 87,111.7 92,113 C 92.2,113 92.4,113.1 92.6,113.1 C 92.6,113.1 92.6,113.1 92.6,113.1 C 94.8,113.6 95.5,113.4 96.6,112.5 C 96.7,112.5 96.8,112.4 97,112.3 C 97.8,111.6 130.8,84 131.8,83.1 C 132.8,82.3 132.9,81.6 133,80.6 C 133.1,79.6 133.6,72.9 133.7,71.8 C 133.7,71.7 133.7,71.6 133.7,71.5 L 133.7,71.5 C 133.8,70.1 133.8,67.7 130.2,66.8 L 130.1,66.8 z M 94.8,111.5 C 94.8,111.5 94.8,111.5 94.8,111.4 L 94.8,111.4 L 94.8,111.4 C 94.8,111.5 94.9,111.6 94.9,111.6 C 94.8,111.5 94.8,111.4 94.8,111.4 L 94.8,111.4 L 94.8,111.5 z M 128.9,71.9 C 130.2,71 131,70.4 131,70.4 C 131,70.4 130.1,71 128.7,72 C 126.5,73.5 123.4,75.7 120,78.1 C 125.7,74.1 130.5,70.7 131.8,69.7 C 131.6,69.9 130.5,70.7 128.9,71.8 L 128.9,71.9 z "
   style="stroke-width:5.329;stroke-linecap:round;stroke-linejoin:round" />
			<linearGradient
   gradientTransform="matrix(0.997,7.73e-2,-7.73e-2,0.997,5.2987,-6.7929)"
   y2="73.128899"
   x2="132.4111"
   y1="73.128899"
   x1="17.3267"
   gradientUnits="userSpaceOnUse"
   id="aigrd2">
				<stop
   id="stop28"
   style="stop-color:#EBEBEB"
   offset="0" />
				<stop
   id="stop30"
   style="stop-color:#EAEAEA"
   offset="1" />
			</linearGradient>
			<path
   id="path32"
   d="M 59.8,47.3 C 57.8,46.7 55.3,46.5 54.3,46.9 C 53.2,47.3 20,66.3 18.2,67.5 C 16.4,68.6 16,70.6 18.4,71.4 C 20.7,72.2 90.3,96.2 92.2,96.7 C 94.1,97.2 97,97.2 98.1,96.4 C 99.1,95.6 131.3,70.6 132.3,69.7 C 133.3,68.8 131.5,67.3 129.9,66.8 C 128.3,66.4 62,47.8 60,47.2 L 59.8,47.3 z "
   style="fill:url(#aigrd2);stroke:none" />
			<linearGradient
   gradientTransform="matrix(0.997,7.73e-2,-7.73e-2,0.997,5.2987,-6.7929)"
   y2="97.297897"
   x2="91.561401"
   y1="92.380898"
   x1="23.292999"
   gradientUnits="userSpaceOnUse"
   id="aigrd3">
				<stop
   id="stop35"
   style="stop-color:#F8F8F8"
   offset="0" />
				<stop
   id="stop37"
   style="stop-color:#C9C9C9"
   offset="1" />
			</linearGradient>
			<path
   id="path39"
   d="M 15.3,73.3 C 15.2,71.7 16.4,70.8 17.5,71.1 C 18.6,71.4 91.3,96.8 93.1,97.8 C 94.9,98.8 95.8,99.4 95.7,100.8 C 95.6,102.2 95,109.9 94.9,111.1 C 94.8,112.3 93.8,113.6 92,113.2 C 86.9,111.9 17.6,84.8 17.6,84.8 C 16.2,84.3 15.8,83.5 15.8,81.8 L 15.2,73.2 L 15.3,73.3 z "
   style="fill:url(#aigrd3);stroke:none" />
			<linearGradient
   gradientTransform="matrix(0.997,7.73e-2,-7.73e-2,0.997,5.2987,-6.7929)"
   y2="69.445099"
   x2="132.23219"
   y1="104.9629"
   x1="102.0625"
   gradientUnits="userSpaceOnUse"
   id="aigrd4">
				<stop
   id="stop42"
   style="stop-color:#9F9F9F"
   offset="0" />
				<stop
   id="stop44"
   style="stop-color:#828282"
   offset="1" />
			</linearGradient>
			<path
   id="path46"
   d="M 96.9,112.5 C 96.1,113.2 94.5,112.3 94.6,110.7 C 94.7,109.1 95.3,101.9 95.4,100.4 C 95.5,99 96.1,97.8 97.2,96.9 C 98.2,96.1 130.6,71.1 131.9,70 C 133.1,68.9 133.8,70.8 133.7,72 C 133.6,73.1 133.1,79.8 133,80.8 C 132.9,81.8 132.8,82.4 131.8,83.3 C 130.8,84.1 97.9,111.7 97,112.5 L 96.9,112.5 z "
   style="fill:url(#aigrd4);stroke:none" />
			<path
   id="path48"
   d="M 96.6,112.6 C 95.5,113.5 94.9,113.7 92.6,113.2 C 94.1,112.7 94.8,111.6 94.8,111.6 C 94.8,111.6 95.2,112.6 96.6,112.6 z "
   style="fill:#848484;stroke:none" />
			<path
   id="path50"
   d="M 130.1,67 C 132,67.8 132.8,69.1 131.9,70 C 132.9,69.3 133.7,71.8 133.7,71.8 C 133.8,70.4 133.8,68 130.2,67.1 L 130.1,67 z "
   style="fill:#545454;stroke:none" />
			<linearGradient
   y2="98.699898"
   x2="112.2054"
   y1="75.974602"
   x1="124.3486"
   gradientUnits="userSpaceOnUse"
   id="aigrd5">
				<stop
   id="stop53"
   style="stop-color:#FFFFFF"
   offset="0" />
				<stop
   id="stop55"
   style="stop-color:#FFFFFF"
   offset="1" />
			</linearGradient>
			<path
   id="path57"
   d="M 133.5,77.7 L 97.6,106.4 L 97.6,107.7 L 133.4,78.7 L 133.5,77.7 L 133.5,77.7 z "
   style="opacity:0.12999998;fill:url(#aigrd5);stroke:none" />
			<linearGradient
   y2="95.548897"
   x2="112.2071"
   y1="72.825203"
   x1="124.3496"
   gradientUnits="userSpaceOnUse"
   id="aigrd6">
				<stop
   id="stop60"
   style="stop-color:#FFFFFF"
   offset="0" />
				<stop
   id="stop62"
   style="stop-color:#FFFFFF"
   offset="1" />
			</linearGradient>
			<path
   id="path64"
   d="M 133.5,74.6 L 97.6,103.3 L 97.6,104.6 L 133.4,75.6 L 133.5,74.6 L 133.5,74.6 z "
   style="opacity:0.12999998;fill:url(#aigrd6);stroke:none" />
			<linearGradient
   y2="97.685097"
   x2="112.2034"
   y1="74.958"
   x1="124.3477"
   gradientUnits="userSpaceOnUse"
   id="aigrd7">
				<stop
   id="stop67"
   style="stop-color:#000000"
   offset="0" />
				<stop
   id="stop69"
   style="stop-color:#6A6A6A"
   offset="1" />
			</linearGradient>
			<path
   id="path71"
   d="M 133.5,76.7 L 97.6,105.4 L 97.6,106.7 L 133.4,77.7 L 133.5,76.7 L 133.5,76.7 z "
   style="opacity:0.12999998;fill:url(#aigrd7);stroke:none" />
			<linearGradient
   y2="94.528503"
   x2="112.2086"
   y1="71.803703"
   x1="124.3516"
   gradientUnits="userSpaceOnUse"
   id="aigrd8">
				<stop
   id="stop74"
   style="stop-color:#000000"
   offset="0" />
				<stop
   id="stop76"
   style="stop-color:#6A6A6A"
   offset="1" />
			</linearGradient>
			<path
   id="path78"
   d="M 133.5,73.5 L 97.6,102.2 L 97.6,103.5 L 133.4,74.5 L 133.5,73.5 L 133.5,73.5 z "
   style="opacity:0.12999998;fill:url(#aigrd8);stroke:none" />
		</g>
		<path
   id="path80"
   d="M 130.9,70.8 L 97.6,93.9 C 95.3,95.4 91.1,96.5 91.1,96.5 L 98.1,98.9 C 98.1,98.9 97.3,98.1 98.3,97.1 L 130.9,70.8 L 130.9,70.8 z "
   style="fill:#fefefe;stroke:none" />
	</g><g
     style="fill-rule:nonzero;stroke:black;stroke-miterlimit:4"
     id="front">
		<g
   id="g83">
			<g
   id="g85">
				<linearGradient
   y2="104.8682"
   x2="55.110699"
   y1="62.557098"
   x1="54.828602"
   gradientUnits="userSpaceOnUse"
   id="aigrd9">
					<stop
   id="stop88"
   style="stop-color:#F8F8F8"
   offset="0" />
					<stop
   id="stop90"
   style="stop-color:#C9C9C9"
   offset="1" />
				</linearGradient>
				<path
   id="path92"
   d="M 4.4,69.2 C 4.4,67.8 5.5,67.1 6.8,67.5 L 103.3,102 C 104.6,102.5 105.7,104 105.7,105.3 L 105.7,117 C 105.7,118.4 104.6,119.1 103.4,118.6 L 6.7,81.5 C 5.4,81 4.4,79.5 4.4,78.1 L 4.5,69.2 L 4.4,69.2 z "
   style="fill:url(#linearGradient4777);stroke:none" />
				<path
   id="path94"
   d="M 4.4,69.2 C 4.4,67.8 5.5,67.1 6.8,67.5 L 103.3,102 C 104.6,102.5 105.7,104 105.7,105.3 L 105.7,117 C 105.7,118.4 104.6,119.1 103.4,118.6 L 6.7,81.5 C 5.4,81 4.4,79.5 4.4,78.1 L 4.5,69.2 L 4.4,69.2 z "
   style="fill:none;stroke-width:2.50539994" />
			</g>
			<g
   id="g96">
				<path
   id="path98"
   d="M 4.4,69.2 C 4.4,67.8 5.5,67.1 6.8,67.5 L 103.3,102 C 104.6,102.5 105.7,104 105.7,105.3 L 105.7,117 C 105.7,118.4 104.6,119.1 103.4,118.6 L 6.7,81.5 C 5.4,81 4.4,79.5 4.4,78.1 L 4.5,69.2 L 4.4,69.2 z "
   style="fill:url(#linearGradient4779);stroke:none" />
			</g>
		</g>
		<g
   id="g100">
			<linearGradient
   y2="85.326202"
   x2="44.583"
   y1="85.326202"
   x1="24.9077"
   gradientUnits="userSpaceOnUse"
   id="aigrd11">
				<stop
   id="stop103"
   style="stop-color:#2A2A2A"
   offset="0" />
				<stop
   id="stop105"
   style="stop-color:#585858"
   offset="0.4743" />
				<stop
   id="stop107"
   style="stop-color:#878787"
   offset="1" />
			</linearGradient>
			<path
   id="path109"
   d="M 24.9,80.4 L 24.9,82.5 L 44.6,90.2 L 44.6,88 L 24.9,80.5 L 24.9,80.4 z "
   style="fill:url(#aigrd11);stroke:none" />
			<path
   id="path111"
   d="M 24.9,82.5 L 23.9,83 L 23.9,79 L 45.2,87 L 44.6,88 L 24.9,80.5 L 24.9,82.6 L 24.9,82.5 z "
   style="opacity:0.22000002;stroke:none" />
			<path
   id="path113"
   d="M 45.2,91.3 L 45.2,87.1 L 44.6,88 L 44.6,90.2 L 24.9,82.5 L 23.9,83 L 45.2,91.3 z "
   style="opacity:0.72000002;fill:white;stroke:none" />
		</g>
		<g
   id="g115">
			<g
   id="g117">
				<linearGradient
   gradientTransform="matrix(0.8559,-0.1616,0.1856,0.9826,-6.4337,17.7731)"
   y2="113.4937"
   x2="100.6509"
   y1="107.293"
   x1="100.3818"
   gradientUnits="userSpaceOnUse"
   id="aigrd12">
					<stop
   id="stop120"
   style="stop-color:#9E9E9E"
   offset="0" />
					<stop
   id="stop122"
   style="stop-color:#2B2B2B"
   offset="1" />
				</linearGradient>
				<path
   id="path124"
   d="M 102.4,109.2 C 102.7,110.9 101.9,112.6 100.6,112.8 C 99.3,113 98,111.8 97.6,110.1 C 97.3,108.4 98.1,106.7 99.4,106.5 C 100.7,106.3 102,107.5 102.4,109.2 z "
   style="fill:url(#aigrd12);stroke:none" />
			</g>
			<g
   id="g126">
				<linearGradient
   gradientTransform="matrix(0.8559,-0.1616,0.1856,0.9826,-6.4337,17.7731)"
   y2="104.4557"
   x2="95.210098"
   y1="117.8857"
   x1="105.5205"
   gradientUnits="userSpaceOnUse"
   id="aigrd13">
					<stop
   id="stop129"
   style="stop-color:#FCFCFC"
   offset="0" />
					<stop
   id="stop131"
   style="stop-color:#E6E6E6"
   offset="1" />
				</linearGradient>
				<path
   id="path133"
   d="M 101.6,109.4 C 101.9,111.1 101.1,112.8 99.8,113 C 98.5,113.2 97.2,112 96.8,110.3 C 96.5,108.6 97.3,106.9 98.6,106.7 C 99.9,106.5 101.2,107.7 101.6,109.4 z "
   style="fill:url(#aigrd13);stroke:none" />
			</g>
			<g
   id="g135">
				<linearGradient
   gradientTransform="matrix(0.8559,-0.1616,0.1856,0.9826,-6.4337,17.7731)"
   y2="105.0935"
   x2="95.705101"
   y1="117.707"
   x1="105.3887"
   gradientUnits="userSpaceOnUse"
   id="aigrd14">
					<stop
   id="stop138"
   style="stop-color:#D9D9D9"
   offset="0" />
					<stop
   id="stop140"
   style="stop-color:#7E7E7E"
   offset="1" />
				</linearGradient>
				<path
   id="path142"
   d="M 101.7,109.7 C 102,111.3 101.3,112.9 100,113.1 C 98.8,113.3 97.5,112.2 97.2,110.5 C 96.9,108.9 97.6,107.3 98.9,107.1 C 100.1,106.9 101.4,108 101.7,109.7 z "
   style="fill:url(#aigrd14);stroke:none" />
			</g>
		</g>
		<g
   id="g144">
			<g
   id="g146">
				<linearGradient
   gradientTransform="matrix(0.8559,-0.1616,0.1856,0.9826,-6.4337,17.7731)"
   y2="62.395401"
   x2="5.0511999"
   y1="57.750999"
   x1="4.8495998"
   gradientUnits="userSpaceOnUse"
   id="aigrd15">
					<stop
   id="stop149"
   style="stop-color:#9E9E9E"
   offset="0" />
					<stop
   id="stop151"
   style="stop-color:#2B2B2B"
   offset="1" />
				</linearGradient>
				<path
   id="path153"
   d="M 10.7,75.4 C 10.9,76.7 10.4,77.9 9.4,78.1 C 8.4,78.3 7.4,77.4 7.2,76.1 C 7,74.8 7.5,73.6 8.5,73.4 C 9.5,73.2 10.5,74.1 10.7,75.4 z "
   style="fill:url(#aigrd15);stroke:none" />
			</g>
			<g
   id="g155">
				<linearGradient
   gradientTransform="matrix(0.8559,-0.1616,0.1856,0.9826,-6.4337,17.7731)"
   y2="56.247398"
   x2="1.4526"
   y1="64.828598"
   x1="8.0404997"
   gradientUnits="userSpaceOnUse"
   id="aigrd16">
					<stop
   id="stop158"
   style="stop-color:#FCFCFC"
   offset="0" />
					<stop
   id="stop160"
   style="stop-color:#E6E6E6"
   offset="1" />
				</linearGradient>
				<path
   id="path162"
   d="M 10.1,75.6 C 10.3,76.9 9.8,78.1 8.8,78.3 C 7.8,78.5 6.8,77.6 6.6,76.3 C 6.4,75 6.9,73.8 7.9,73.6 C 8.9,73.4 9.9,74.3 10.1,75.6 L 10.1,75.6 z "
   style="fill:url(#aigrd16);stroke:none" />
			</g>
			<g
   id="g164">
				<linearGradient
   gradientTransform="matrix(0.8559,-0.1616,0.1856,0.9826,-6.4337,17.7731)"
   y2="56.6842"
   x2="1.7923"
   y1="64.746597"
   x1="7.9819002"
   gradientUnits="userSpaceOnUse"
   id="aigrd17">
					<stop
   id="stop167"
   style="stop-color:#D9D9D9"
   offset="0" />
					<stop
   id="stop169"
   style="stop-color:#ADADAD"
   offset="1" />
				</linearGradient>
				<path
   id="path171"
   d="M 10.1,75.8 C 10.3,77 9.8,78.2 8.9,78.3 C 8,78.5 7,77.6 6.8,76.4 C 6.6,75.2 7.1,74 8,73.9 C 8.9,73.7 9.9,74.6 10.1,75.8 L 10.1,75.8 z "
   style="fill:url(#aigrd17);stroke:none" />
			</g>
		</g>
		<g
   id="g173">
			<path
   id="path175"
   d="M 104.5,102.9 C 105.2,102.9 103.6,102.1 101,101.2 L 13.3,69.8 C 10.7,68.9 7.7,67.8 6.5,67.4 C 5.4,67 4.4,67.6 4.4,68.8 C 4.4,70 4.4,73.1 4.3,75.8 C 4.3,78.4 4.4,78.5 4.7,76 C 4.9,73.5 5.2,70.7 5.3,69.8 C 5.4,68.9 6.2,68.5 7.1,68.8 C 8,69.1 10.8,70.1 13.4,71 L 98.4,101.2 C 101,102.1 103.7,102.9 104.4,102.9 L 104.5,102.9 z "
   style="fill:#fefefe;stroke:none" />
		</g>
		<g
   id="g177">
			<g
   id="g179">
				<g
   id="g181">
					<linearGradient
   gradientTransform="matrix(0.999,-4.567049e-2,4.567049e-2,0.999,-4.6106,3.3903)"
   y2="98.610703"
   x2="67.115799"
   y1="90.911102"
   x1="67.064499"
   gradientUnits="userSpaceOnUse"
   id="aigrd18">
						<stop
   id="stop184"
   style="stop-color:#2D2D2D"
   offset="0" />
						<stop
   id="stop186"
   style="stop-color:#959595"
   offset="1" />
					</linearGradient>
					<path
   id="path188"
   d="M 66.1,92 L 66.5,101.4 L 67.2,92.4 L 66.1,92 z "
   style="opacity:0.75;fill:url(#aigrd18);stroke:none" />
					<linearGradient
   gradientTransform="matrix(0.999,-4.567049e-2,4.567049e-2,0.999,-4.6106,3.3903)"
   y2="99.139099"
   x2="67.119202"
   y1="91.366203"
   x1="67.067398"
   gradientUnits="userSpaceOnUse"
   id="aigrd19">
						<stop
   id="stop191"
   style="stop-color:#9E9E9E"
   offset="0" />
						<stop
   id="stop193"
   style="stop-color:#FFFFFF"
   offset="1" />
					</linearGradient>
					<path
   id="path195"
   d="M 67.6,101.9 L 66.5,101.4 L 67.2,92.4 L 67.6,101.9 L 67.6,101.9 z "
   style="opacity:0.75;fill:url(#aigrd19);stroke:none" />
				</g>
				<g
   id="g197">
					<linearGradient
   gradientTransform="matrix(0.9989,-4.67326e-2,4.67326e-2,0.9989,-4.7377,3.5532)"
   y2="99.255096"
   x2="68.856697"
   y1="91.533203"
   x1="68.805199"
   gradientUnits="userSpaceOnUse"
   id="aigrd20">
						<stop
   id="stop200"
   style="stop-color:#2D2D2D"
   offset="0" />
						<stop
   id="stop202"
   style="stop-color:#959595"
   offset="1" />
					</linearGradient>
					<path
   id="path204"
   d="M 67.8,92.6 L 68.2,102.1 L 68.8,93.1 L 67.7,92.7 L 67.8,92.6 z "
   style="opacity:0.75;fill:url(#aigrd20);stroke:none" />
					<linearGradient
   gradientTransform="matrix(0.9989,-4.67326e-2,4.67326e-2,0.9989,-4.7377,3.5532)"
   y2="99.778503"
   x2="68.8601"
   y1="91.987297"
   x1="68.808098"
   gradientUnits="userSpaceOnUse"
   id="aigrd21">
						<stop
   id="stop207"
   style="stop-color:#9E9E9E"
   offset="0" />
						<stop
   id="stop209"
   style="stop-color:#FFFFFF"
   offset="1" />
					</linearGradient>
					<path
   id="path211"
   d="M 69.3,102.6 L 68.2,102.1 L 68.8,93.1 L 69.2,102.6 L 69.3,102.6 z "
   style="opacity:0.75;fill:url(#aigrd21);stroke:none" />
				</g>
				<g
   id="g213">
					<linearGradient
   gradientTransform="matrix(0.9988,-4.779471e-2,4.779471e-2,0.9988,-4.8644,3.7176)"
   y2="99.901604"
   x2="70.5961"
   y1="92.158203"
   x1="70.544403"
   gradientUnits="userSpaceOnUse"
   id="aigrd22">
						<stop
   id="stop216"
   style="stop-color:#2D2D2D"
   offset="0" />
						<stop
   id="stop218"
   style="stop-color:#959595"
   offset="1" />
					</linearGradient>
					<path
   id="path220"
   d="M 69.6,93.3 L 70,102.8 L 70.6,93.7 L 69.5,93.3 L 69.6,93.3 z "
   style="opacity:0.75;fill:url(#aigrd22);stroke:none" />
					<linearGradient
   gradientTransform="matrix(0.9988,-4.779471e-2,4.779471e-2,0.9988,-4.8644,3.7176)"
   y2="100.4218"
   x2="70.599403"
   y1="92.612297"
   x1="70.547401"
   gradientUnits="userSpaceOnUse"
   id="aigrd23">
						<stop
   id="stop223"
   style="stop-color:#9E9E9E"
   offset="0" />
						<stop
   id="stop225"
   style="stop-color:#FFFFFF"
   offset="1" />
					</linearGradient>
					<path
   id="path227"
   d="M 71.1,103.2 L 70,102.7 L 70.6,93.6 L 71.1,103.2 z "
   style="opacity:0.75;fill:url(#aigrd23);stroke:none" />
				</g>
				<g
   id="g229">
					<linearGradient
   gradientTransform="matrix(0.9988,-4.885682e-2,4.885682e-2,0.9988,-4.9916,3.8805)"
   y2="100.554"
   x2="72.334999"
   y1="92.789101"
   x1="72.283203"
   gradientUnits="userSpaceOnUse"
   id="aigrd24">
						<stop
   id="stop232"
   style="stop-color:#2D2D2D"
   offset="0" />
						<stop
   id="stop234"
   style="stop-color:#959595"
   offset="1" />
					</linearGradient>
					<path
   id="path236"
   d="M 71.3,93.9 L 71.7,103.4 L 72.3,94.3 L 71.2,93.9 L 71.3,93.9 z "
   style="opacity:0.75;fill:url(#aigrd24);stroke:none" />
					<linearGradient
   gradientTransform="matrix(0.9988,-4.885682e-2,4.885682e-2,0.9988,-4.9916,3.8805)"
   y2="101.0691"
   x2="72.338799"
   y1="93.241203"
   x1="72.286598"
   gradientUnits="userSpaceOnUse"
   id="aigrd25">
						<stop
   id="stop239"
   style="stop-color:#9E9E9E"
   offset="0" />
						<stop
   id="stop241"
   style="stop-color:#FFFFFF"
   offset="1" />
					</linearGradient>
					<path
   id="path243"
   d="M 72.8,103.9 L 71.7,103.4 L 72.3,94.3 L 72.8,103.9 z "
   style="opacity:0.75;fill:url(#aigrd25);stroke:none" />
				</g>
				<g
   id="g245">
					<linearGradient
   gradientTransform="matrix(0.9987,-4.991894e-2,4.991894e-2,0.9987,-5.1187,4.0444)"
   y2="101.2103"
   x2="74.072403"
   y1="93.423798"
   x1="74.0205"
   gradientUnits="userSpaceOnUse"
   id="aigrd26">
						<stop
   id="stop248"
   style="stop-color:#2D2D2D"
   offset="0" />
						<stop
   id="stop250"
   style="stop-color:#959595"
   offset="1" />
					</linearGradient>
					<path
   id="path252"
   d="M 73,94.5 L 73.5,104 L 74.1,94.9 L 73,94.5 z "
   style="opacity:0.75;fill:url(#aigrd26);stroke:none" />
					<linearGradient
   gradientTransform="matrix(0.9987,-4.991894e-2,4.991894e-2,0.9987,-5.1187,4.0444)"
   y2="101.7204"
   x2="74.075798"
   y1="93.875"
   x1="74.023399"
   gradientUnits="userSpaceOnUse"
   id="aigrd27">
						<stop
   id="stop255"
   style="stop-color:#9E9E9E"
   offset="0" />
						<stop
   id="stop257"
   style="stop-color:#FFFFFF"
   offset="1" />
					</linearGradient>
					<path
   id="path259"
   d="M 74.6,104.5 L 73.5,104 L 74.1,94.9 L 74.6,104.5 z "
   style="opacity:0.75;fill:url(#aigrd27);stroke:none" />
				</g>
				<g
   id="g261">
					<linearGradient
   gradientTransform="matrix(0.9987,-5.098105e-2,5.098105e-2,0.9987,-5.2464,4.2083)"
   y2="101.8683"
   x2="75.807899"
   y1="94.059601"
   x1="75.755898"
   gradientUnits="userSpaceOnUse"
   id="aigrd28">
						<stop
   id="stop264"
   style="stop-color:#2D2D2D"
   offset="0" />
						<stop
   id="stop266"
   style="stop-color:#959595"
   offset="1" />
					</linearGradient>
					<path
   id="path268"
   d="M 74.8,95.2 L 75.3,104.8 L 75.9,95.6 L 74.8,95.2 L 74.8,95.2 z "
   style="opacity:0.75;fill:url(#aigrd28);stroke:none" />
					<linearGradient
   gradientTransform="matrix(0.9987,-5.098105e-2,5.098105e-2,0.9987,-5.2464,4.2083)"
   y2="102.3753"
   x2="75.811203"
   y1="94.510696"
   x1="75.758797"
   gradientUnits="userSpaceOnUse"
   id="aigrd29">
						<stop
   id="stop271"
   style="stop-color:#9E9E9E"
   offset="0" />
						<stop
   id="stop273"
   style="stop-color:#FFFFFF"
   offset="1" />
					</linearGradient>
					<path
   id="path275"
   d="M 76.3,105.2 L 75.2,104.7 L 75.8,95.5 L 76.3,105.1 L 76.3,105.2 z "
   style="opacity:0.75;fill:url(#aigrd29);stroke:none" />
				</g>
				<g
   id="g277">
					<linearGradient
   gradientTransform="matrix(0.9986,-5.204316e-2,5.204316e-2,0.9986,-5.3735,4.3716)"
   y2="102.5306"
   x2="77.541496"
   y1="94.701202"
   x1="77.489304"
   gradientUnits="userSpaceOnUse"
   id="aigrd30">
						<stop
   id="stop280"
   style="stop-color:#2D2D2D"
   offset="0" />
						<stop
   id="stop282"
   style="stop-color:#959595"
   offset="1" />
					</linearGradient>
					<path
   id="path284"
   d="M 76.5,95.8 L 77,105.4 L 77.6,96.2 L 76.5,95.8 L 76.5,95.8 z "
   style="opacity:0.75;fill:url(#aigrd30);stroke:none" />
					<linearGradient
   gradientTransform="matrix(0.9986,-5.204316e-2,5.204316e-2,0.9986,-5.3735,4.3716)"
   y2="103.0324"
   x2="77.544701"
   y1="95.150398"
   x1="77.492203"
   gradientUnits="userSpaceOnUse"
   id="aigrd31">
						<stop
   id="stop287"
   style="stop-color:#9E9E9E"
   offset="0" />
						<stop
   id="stop289"
   style="stop-color:#FFFFFF"
   offset="1" />
					</linearGradient>
					<path
   id="path291"
   d="M 78.1,105.8 L 77,105.3 L 77.6,96.1 L 78.1,105.7 L 78.1,105.8 z "
   style="opacity:0.75;fill:url(#aigrd31);stroke:none" />
				</g>
				<g
   id="g293">
					<linearGradient
   gradientTransform="matrix(0.9986,-5.310527e-2,5.310527e-2,0.9986,-5.5007,4.5356)"
   y2="103.1973"
   x2="79.275002"
   y1="95.344704"
   x1="79.222702"
   gradientUnits="userSpaceOnUse"
   id="aigrd32">
						<stop
   id="stop296"
   style="stop-color:#2D2D2D"
   offset="0" />
						<stop
   id="stop298"
   style="stop-color:#959595"
   offset="1" />
					</linearGradient>
					<path
   id="path300"
   d="M 78.2,96.4 L 78.7,106 L 79.3,96.8 L 78.2,96.4 L 78.2,96.4 z "
   style="opacity:0.75;fill:url(#aigrd32);stroke:none" />
					<linearGradient
   gradientTransform="matrix(0.9986,-5.310527e-2,5.310527e-2,0.9986,-5.5007,4.5356)"
   y2="103.6961"
   x2="79.278297"
   y1="95.794899"
   x1="79.225601"
   gradientUnits="userSpaceOnUse"
   id="aigrd33">
						<stop
   id="stop303"
   style="stop-color:#9E9E9E"
   offset="0" />
						<stop
   id="stop305"
   style="stop-color:#FFFFFF"
   offset="1" />
					</linearGradient>
					<path
   id="path307"
   d="M 79.8,106.5 L 78.7,106 L 79.3,96.8 L 79.8,106.5 z "
   style="opacity:0.75;fill:url(#aigrd33);stroke:none" />
				</g>
				<g
   id="g309">
					<linearGradient
   gradientTransform="matrix(0.9985,-5.416739e-2,5.416739e-2,0.9985,-5.6273,4.6994)"
   y2="103.8672"
   x2="81.006599"
   y1="95.993202"
   x1="80.954102"
   gradientUnits="userSpaceOnUse"
   id="aigrd34">
						<stop
   id="stop312"
   style="stop-color:#2D2D2D"
   offset="0" />
						<stop
   id="stop314"
   style="stop-color:#959595"
   offset="1" />
					</linearGradient>
					<path
   id="path316"
   d="M 80,97.1 L 80.5,106.7 L 81,97.5 L 80,97.1 z "
   style="opacity:0.75;fill:url(#aigrd34);stroke:none" />
					<linearGradient
   gradientTransform="matrix(0.9985,-5.416739e-2,5.416739e-2,0.9985,-5.6273,4.6994)"
   y2="104.3611"
   x2="81.009804"
   y1="96.442398"
   x1="80.957001"
   gradientUnits="userSpaceOnUse"
   id="aigrd35">
						<stop
   id="stop319"
   style="stop-color:#9E9E9E"
   offset="0" />
						<stop
   id="stop321"
   style="stop-color:#FFFFFF"
   offset="1" />
					</linearGradient>
					<path
   id="path323"
   d="M 81.6,107.1 L 80.5,106.7 L 81,97.5 L 81.5,107.2 L 81.6,107.1 z "
   style="opacity:0.75;fill:url(#aigrd35);stroke:none" />
				</g>
				<g
   id="g325">
					<linearGradient
   gradientTransform="matrix(0.9985,-5.52295e-2,5.52295e-2,0.9985,-5.7545,4.8629)"
   y2="104.5409"
   x2="82.736198"
   y1="96.644501"
   x1="82.683601"
   gradientUnits="userSpaceOnUse"
   id="aigrd36">
						<stop
   id="stop328"
   style="stop-color:#2D2D2D"
   offset="0" />
						<stop
   id="stop330"
   style="stop-color:#959595"
   offset="1" />
					</linearGradient>
					<path
   id="path332"
   d="M 81.7,97.7 L 82.2,107.4 L 82.7,98.1 L 81.6,97.7 L 81.7,97.7 z "
   style="opacity:0.75;fill:url(#aigrd36);stroke:none" />
					<linearGradient
   gradientTransform="matrix(0.9985,-5.52295e-2,5.52295e-2,0.9985,-5.7545,4.8629)"
   y2="105.0308"
   x2="82.739403"
   y1="97.093803"
   x1="82.686501"
   gradientUnits="userSpaceOnUse"
   id="aigrd37">
						<stop
   id="stop335"
   style="stop-color:#9E9E9E"
   offset="0" />
						<stop
   id="stop337"
   style="stop-color:#FFFFFF"
   offset="1" />
					</linearGradient>
					<path
   id="path339"
   d="M 83.3,107.8 L 82.2,107.4 L 82.7,98.1 L 83.2,107.8 L 83.3,107.8 z "
   style="opacity:0.75;fill:url(#aigrd37);stroke:none" />
				</g>
				<g
   id="g341">
					<linearGradient
   gradientTransform="matrix(0.9984,-5.629161e-2,5.629161e-2,0.9984,-5.8816,5.0262)"
   y2="105.2179"
   x2="84.464897"
   y1="97.300797"
   x1="84.412102"
   gradientUnits="userSpaceOnUse"
   id="aigrd38">
						<stop
   id="stop344"
   style="stop-color:#2D2D2D"
   offset="0" />
						<stop
   id="stop346"
   style="stop-color:#959595"
   offset="1" />
					</linearGradient>
					<path
   id="path348"
   d="M 83.4,98.3 L 84,108 L 84.5,98.7 L 83.4,98.3 z "
   style="opacity:0.75;fill:url(#aigrd38);stroke:none" />
					<linearGradient
   gradientTransform="matrix(0.9984,-5.629161e-2,5.629161e-2,0.9984,-5.8816,5.0262)"
   y2="105.7042"
   x2="84.468102"
   y1="97.748001"
   x1="84.415001"
   gradientUnits="userSpaceOnUse"
   id="aigrd39">
						<stop
   id="stop351"
   style="stop-color:#9E9E9E"
   offset="0" />
						<stop
   id="stop353"
   style="stop-color:#FFFFFF"
   offset="1" />
					</linearGradient>
					<path
   id="path355"
   d="M 85.1,108.4 L 84,108 L 84.5,98.7 L 85,108.4 L 85.1,108.4 z "
   style="opacity:0.75;fill:url(#aigrd39);stroke:none" />
				</g>
				<g
   id="g357">
					<linearGradient
   gradientTransform="matrix(0.9983,-5.735372e-2,5.735372e-2,0.9983,-6.0083,5.1902)"
   y2="105.9002"
   x2="86.192596"
   y1="97.959999"
   x1="86.139603"
   gradientUnits="userSpaceOnUse"
   id="aigrd40">
						<stop
   id="stop360"
   style="stop-color:#2D2D2D"
   offset="0" />
						<stop
   id="stop362"
   style="stop-color:#959595"
   offset="1" />
					</linearGradient>
					<path
   id="path364"
   d="M 85.2,98.9 L 85.8,108.6 L 86.3,99.3 L 85.2,98.9 z "
   style="opacity:0.75;fill:url(#aigrd40);stroke:none" />
					<linearGradient
   gradientTransform="matrix(0.9983,-5.735372e-2,5.735372e-2,0.9983,-6.0083,5.1902)"
   y2="106.3801"
   x2="86.195702"
   y1="98.407204"
   x1="86.142601"
   gradientUnits="userSpaceOnUse"
   id="aigrd41">
						<stop
   id="stop367"
   style="stop-color:#9E9E9E"
   offset="0" />
						<stop
   id="stop369"
   style="stop-color:#FFFFFF"
   offset="1" />
					</linearGradient>
					<path
   id="path371"
   d="M 86.8,109.1 L 85.7,108.7 L 86.2,99.4 L 86.8,109.2 L 86.8,109.1 z "
   style="opacity:0.75;fill:url(#aigrd41);stroke:none" />
				</g>
				<g
   id="g373">
					<linearGradient
   gradientTransform="matrix(0.9983,-5.841583e-2,5.841583e-2,0.9983,-6.1355,5.3535)"
   y2="106.5848"
   x2="87.917297"
   y1="98.623001"
   x1="87.864304"
   gradientUnits="userSpaceOnUse"
   id="aigrd42">
						<stop
   id="stop376"
   style="stop-color:#2D2D2D"
   offset="0" />
						<stop
   id="stop378"
   style="stop-color:#959595"
   offset="1" />
					</linearGradient>
					<path
   id="path380"
   d="M 86.9,99.6 L 87.5,109.3 L 88,100 L 86.9,99.6 z "
   style="opacity:0.75;fill:url(#aigrd42);stroke:none" />
					<linearGradient
   gradientTransform="matrix(0.9983,-5.841583e-2,5.841583e-2,0.9983,-6.1355,5.3535)"
   y2="107.0603"
   x2="87.920502"
   y1="99.068398"
   x1="87.867203"
   gradientUnits="userSpaceOnUse"
   id="aigrd43">
						<stop
   id="stop383"
   style="stop-color:#9E9E9E"
   offset="0" />
						<stop
   id="stop385"
   style="stop-color:#FFFFFF"
   offset="1" />
					</linearGradient>
					<path
   id="path387"
   d="M 88.5,109.7 L 87.4,109.3 L 88,100 L 88.6,109.8 L 88.5,109.7 z "
   style="opacity:0.75;fill:url(#aigrd43);stroke:none" />
				</g>
			</g>
		</g>
	</g></g>
	
</svg>