<?xml version="1.0" encoding="UTF-8"?>
<!DOCTYPE svg PUBLIC "-//W3C//DTD SVG 1.1//EN" "http://www.w3.org/Graphics/SVG/1.1/DTD/svg11.dtd">
<!-- Creator: CorelDRAW X6 -->
<svg xmlns="http://www.w3.org/2000/svg" xml:space="preserve" width="118px" height="154px" version="1.1" style="shape-rendering:geometricPrecision; text-rendering:geometricPrecision; image-rendering:optimizeQuality; fill-rule:evenodd; clip-rule:evenodd"
viewBox="0 0 118 153"
 xmlns:xlink="http://www.w3.org/1999/xlink">
 <defs>
  <style type="text/css">
   <![CDATA[
    .str0 {stroke:#2B2A29;stroke-width:0.89916}
    .fil1 {fill:#61A375}
    .fil0 {fill:#EBECEC}
    .fil4 {fill:#004584}
    .fil5 {fill:#93B0CB}
    .fil3 {fill:#BECFDF}
    .fil7 {fill:#F9EBEB}
    .fil2 {fill:#FF2D16}
    .fil6 {fill:#FF4430}
    .fil8 {fill:#FF5D4B}
    .fil9 {fill:#2B2A29;fill-rule:nonzero}
   ]]>
  </style>
 </defs>
 <g id="Слой_x0020_1">
  <metadata id="CorelCorpID_0Corel-Layer"/>
  <rect class="fil0 str0" x="6" y="4" width="100" height="145"/>
  <circle class="fil1" cx="69" cy="68" r="3"/>
  <g id="_298499944">
   <path class="fil2" d="M22 22c0,0 -1,1 -1,2 0,0 -1,1 -1,1l2 -3c0,0 0,0 0,0l5 -10c0,0 0,0 1,0 0,-1 0,-1 0,-2 0,0 0,0 -1,2 0,0 0,0 0,0l-6 9c0,1 0,1 0,1l-1 3c-1,0 -1,0 -1,0 1,-1 2,-2 2,-3 0,0 1,-3 2,-3l3 -7c1,0 1,-1 1,-1 -1,0 -1,1 -2,2l-6 12c0,0 0,0 -1,0 0,1 -1,1 -1,1 -2,0 -3,0 -4,0l0 2 10 0c0,0 1,-1 1,-1l1 0c0,0 1,-1 1,-1l8 -14c0,0 0,0 0,0l0 -1c0,0 1,-1 1,-1l-1 0 -3 6c0,0 0,0 -1,1l-3 5c0,0 0,1 0,1 -1,1 -1,2 -2,3 0,-1 2,-4 2,-4l0 -1c1,0 1,0 1,0l5 -10c0,0 0,0 0,0l1 -1 -1 0 -5 8c0,1 0,1 0,1 0,1 -2,3 -2,3 0,0 -1,3 -1,3 0,0 1,-3 1,-3l7 -12 -1 0c0,0 -2,3 -2,4l-3 5c0,0 -1,1 -1,1l-1 2c0,0 0,1 -1,2 0,0 0,0 0,0 0,1 0,1 0,1l-1 0c0,0 2,-3 2,-3l2 -3c0,-1 0,-1 0,-1l4 -7c0,0 0,0 0,0l0 -1c0,0 0,0 1,0l-1 0c0,0 -1,3 -2,3 0,1 0,1 0,2l-5 7c0,0 -1,3 -1,3 0,-1 1,-3 1,-3 0,0 0,0 0,-1l4 -6c0,0 0,0 0,0 0,-1 0,-1 0,-1 0,0 0,0 1,0 0,-1 0,-1 0,-1l1 -2c0,0 0,-1 0,-1l0 0 -1 2c0,0 0,0 0,0 0,1 0,1 -1,1 0,0 0,1 0,1 0,0 -4,7 -5,8 0,0 -1,3 -1,3 -1,0 -1,0 -1,0l2 -3 3 -5c0,-1 0,-1 0,-1l3 -4c0,-1 0,-2 0,-2l0 0 -2 3c0,0 -5,8 -5,9z"/>
   <polygon class="fil3" points="13,24 14,24 14,11 25,11 25,10 13,10 "/>
   <path class="fil4" d="M39 27l-12 0 0 0 13 0 0 -14 -1 0c0,4 0,9 0,13 0,1 0,1 0,1z"/>
   <path class="fil4" d="M13 22l0 2 1 0c0,-3 0,-11 0,-13 1,0 8,0 10,0l1 0 0 -1 -12 0 0 12z"/>
   <path class="fil5" d="M39 27c0,0 0,0 0,-1 0,-4 0,-9 0,-13l1 0 0 14 -13 0 0 0 0 1 13 -1 0 -14 -1 0 0 14z"/>
   <path class="fil6" d="M36 10l-1 0c0,0 -1,2 -1,3 0,0 0,0 0,0 1,-1 1,-1 1,-2 0,0 1,-1 1,-1z"/>
   <path class="fil7" d="M27 22c0,0 0,0 0,0 0,0 -2,3 -2,4 1,-1 1,-2 2,-3 0,0 0,-1 0,-1z"/>
   <path class="fil8" d="M37 10l-1 0c0,0 0,0 0,0 0,1 0,1 0,1l0 0c0,0 0,0 0,0l-1 1c0,0 1,0 1,0 0,0 0,0 0,0 0,0 0,-1 0,-1 1,-1 1,-1 1,-1z"/>
   <path class="fil8" d="M39 10l-1 0c0,0 0,0 0,0 0,0 0,0 0,0 0,1 0,1 0,1 0,0 0,0 0,0l-1 1c1,0 1,0 1,0 0,-1 0,-1 0,-1 1,-1 1,-1 1,-1z"/>
   <path class="fil8" d="M38 10l-1 0c0,0 0,0 0,0l0 1c0,0 0,0 0,0 0,0 0,0 0,0l0 1c-1,0 -1,0 -1,0 1,0 1,0 1,-1l1 -1z"/>
   <path class="fil7" d="M25 22c0,0 0,0 0,0 0,0 -2,3 -2,3l1 0c0,0 0,0 0,-1 0,0 0,0 0,0 1,-1 1,-2 1,-2z"/>
   <path class="fil7" d="M22 22c0,0 0,0 0,0l-2 3c0,0 1,-1 1,-1 0,-1 1,-2 1,-2z"/>
   <path class="fil7" d="M23 22c0,0 0,0 0,0l-2 3c0,0 0,0 1,0 0,0 1,-3 1,-3z"/>
   <path class="fil6" d="M40 10l-1 0c0,0 0,0 0,0l-1 2 1 0c0,-1 1,-1 1,-2z"/>
   <path class="fil7" d="M24 22c0,0 0,0 0,0 0,0 -1,2 -1,3 0,0 1,-3 1,-3z"/>
   <path class="fil7" d="M26 22c0,0 0,0 0,0 0,0 -1,3 -1,3 0,0 1,-3 1,-3z"/>
   <path class="fil7" d="M21 22c0,0 0,0 0,0 0,1 -1,2 -2,3 0,0 0,0 1,0l1 -3z"/>
   <path class="fil6" d="M40 12l0 -1c0,0 0,0 0,0l0 0c0,1 0,0 0,1l0 0z"/>
  </g>
  <polygon class="fil9" points="44,17 45,17 45,25 48,25 48,17 49,17 49,25 52,25 52,17 53,17 53,26 44,26 "/>
  <polygon id="1" class="fil9" points="58,26 58,18 55,18 55,17 62,17 62,18 59,18 59,26 "/>
  <polygon id="2" class="fil9" points="64,17 65,17 65,24 70,17 71,17 71,26 70,26 70,19 65,26 64,26 "/>
  <path id="3" class="fil9" d="M74 17l5 0 0 9 -1 0 0 -8 -3 0 0 5c0,1 0,1 0,2 0,0 0,1 -1,1 0,0 0,0 -1,0 0,0 0,0 -1,0l1 -1c0,0 0,0 0,0 0,0 1,0 1,0 0,0 0,-1 0,-2l0 -6z"/>
  <path id="4" class="fil9" d="M82 17l1 0 0 4 2 0c1,0 2,0 2,0 1,1 1,1 1,1 0,1 1,1 1,1 0,1 -1,2 -1,2 -1,1 -1,1 -3,1l-3 0 0 -9zm1 8l2 0c1,0 2,0 2,0 0,-1 0,-1 0,-2 0,0 0,0 0,0 0,-1 0,-1 -1,-1 0,0 -1,0 -1,0l-2 0 0 3z"/>
  <circle class="fil1" cx="69" cy="76" r="3"/>
  <path class="fil9" d="M77 68l0 0c0,0 0,1 0,1 0,0 0,0 -1,0 0,0 0,0 0,0 0,-1 0,-1 0,-1 0,0 0,-1 0,-1 0,0 0,0 0,0 0,0 0,0 0,0 1,0 1,0 1,0 0,0 0,0 0,0l0 0c0,0 0,0 0,0 0,0 0,0 0,0 -1,0 -1,0 -1,0 0,0 0,0 0,1 0,0 0,0 0,0 0,1 0,1 0,1 1,0 1,0 1,-1 0,0 0,0 0,0z"/>
  <path id="1" class="fil9" d="M79 68l1 0c-1,0 -1,1 -1,1 0,0 0,0 0,0 -1,0 -1,0 -1,0 0,-1 0,-1 0,-1 0,-1 0,-1 0,-1 0,0 0,0 1,0 0,0 0,0 0,0 0,0 1,0 1,1 0,0 0,0 0,0l-2 0c0,0 0,0 0,0 0,1 0,1 1,1 0,0 0,0 0,0 0,-1 0,-1 0,-1zm-1 0l1 0c0,-1 0,-1 0,-1 0,0 0,0 0,0 -1,0 -1,0 -1,0 0,0 0,0 0,1z"/>
  <polygon id="2" class="fil9" points="80,67 81,67 81,67 81,67 81,69 80,69 80,67 80,67 "/>
  <path id="3" class="fil9" d="M82 67l0 0 0 1 1 0c0,0 0,0 0,0 0,0 1,0 1,0 0,0 -1,1 -1,1 0,0 0,0 0,0l-1 0 0 -2zm0 2l1 0c0,0 0,0 0,-1 0,0 0,0 0,0 0,0 0,0 0,0 0,0 0,0 0,0l-1 0 0 1z"/>
  <path class="fil9" d="M76 75l0 0c1,0 1,0 1,0 0,0 0,0 0,0 0,0 0,0 0,1 0,0 0,0 0,0 0,0 0,0 0,0 0,0 0,0 0,0 0,0 0,0 0,1 0,0 0,0 0,0 0,0 0,0 -1,0l0 0 0 -2zm0 1l0 0c0,0 1,0 1,0 0,0 0,0 0,0 0,0 0,0 0,0 0,-1 0,-1 0,-1 0,0 -1,0 -1,0l0 0 0 1zm0 1l0 0c1,0 1,0 1,0 0,0 0,0 0,0 0,-1 0,-1 0,-1 0,0 0,0 0,0 0,0 -1,0 -1,0l0 0 0 1z"/>
  <path id="1" class="fil9" d="M80 75l0 0 0 2 0 0 0 -2zm-2 0l0 0 0 1 1 0c0,0 0,0 0,0 0,0 1,0 1,0 0,1 -1,1 -1,1 0,0 0,0 0,0l-1 0 0 -2zm0 2l0 0c1,0 1,0 1,0 0,0 0,0 0,-1 0,0 0,0 0,0 0,0 0,0 0,0l-1 0 0 1z"/>
  <path id="2" class="fil9" d="M80 77l1 -1 0 -1 0 0 0 0c0,1 0,1 0,1 1,0 1,0 1,-1l0 0 0 0 0 1 0 1 0 0 0 -1 -1 0 0 1 -1 0z"/>
  <path id="3" class="fil9" d="M83 76c0,0 0,-1 0,-1 0,0 0,0 1,0 0,0 0,0 0,0 1,0 1,1 1,1 0,0 0,1 0,1 -1,0 -1,0 -1,0 0,0 0,0 0,0 -1,0 -1,0 -1,0 0,0 0,-1 0,-1zm0 0c0,0 0,1 0,1 0,0 0,0 1,0 0,0 0,0 0,0 0,0 0,-1 0,-1 0,0 0,0 0,-1 0,0 0,0 0,0 -1,0 -1,0 -1,0 0,1 0,1 0,1z"/>
  <path id="4" class="fil9" d="M85 75l2 0 0 2 0 0 0 1 0 0 0 -1 -2 0 0 1 0 0 0 -1 0 0c0,-1 0,-1 0,-2zm1 0c0,1 -1,1 -1,2l1 0 0 -2 0 0z"/>
 </g>
</svg>
